{"glyphs":{"0":{"ha":936,"x_min":68,"x_max":868,"o":"m 468 968 q 751 825 633 968 q 868 477 868 681 q 751 130 868 274 q 468 -14 633 -14 q 185 130 302 -14 q 68 477 68 274 q 185 825 68 681 q 468 968 302 968 m 290 477 q 331 100 290 188 q 465 12 372 12 q 601 98 560 12 q 644 477 642 183 q 603 851 644 764 q 468 939 562 939 q 333 854 374 939 q 290 477 292 768 z "},"1":{"ha":861,"x_min":68,"x_max":793,"o":"m 481 947 l 525 947 l 525 247 q 558 77 525 129 q 745 25 592 25 l 793 25 l 793 0 l 68 0 l 68 25 l 109 25 q 302 68 259 25 q 345 258 345 111 l 345 642 q 306 781 345 736 q 167 827 267 827 l 93 827 l 93 852 q 322 884 261 865 q 481 947 383 902 z "},"2":{"ha":924,"x_min":68,"x_max":857,"o":"m 461 962 q 728 887 617 962 q 838 666 838 812 q 580 390 838 494 q 204 180 321 287 l 572 180 q 760 204 724 180 q 831 363 795 227 l 857 363 l 787 0 l 68 0 q 245 247 77 124 q 514 458 414 370 q 614 682 614 547 q 553 874 614 819 q 406 930 492 930 q 176 856 256 930 q 96 687 96 782 q 101 635 96 657 q 125 613 106 613 q 146 650 140 613 q 182 717 153 687 q 264 747 212 747 q 355 713 323 747 q 389 627 387 680 q 347 530 389 568 q 248 492 304 492 q 116 542 165 492 q 68 686 68 591 q 157 878 68 793 q 461 962 247 962 z "},"3":{"ha":936,"x_min":68,"x_max":868,"o":"m 432 969 q 717 900 631 969 q 803 724 803 830 q 729 577 803 633 q 547 510 654 521 q 770 434 673 496 q 868 259 868 371 q 753 64 868 141 q 421 -14 637 -14 q 151 50 235 -14 q 68 192 68 113 q 102 284 68 256 q 181 313 137 313 q 264 281 235 313 q 292 208 292 249 q 271 142 292 166 q 218 102 249 117 q 209 94 212 97 q 207 81 207 90 q 258 33 207 52 q 410 14 309 14 q 598 75 551 14 q 646 222 646 136 q 588 434 646 378 q 435 490 530 490 q 349 487 385 490 q 297 484 313 484 q 266 490 272 484 q 260 509 260 497 q 267 528 260 522 q 294 534 273 534 q 342 530 309 534 q 417 526 376 526 q 558 566 522 526 q 595 720 595 607 q 543 893 595 844 q 422 941 491 941 q 266 915 317 941 q 214 861 214 889 q 259 819 214 842 q 304 733 304 795 q 274 659 304 683 q 191 634 245 634 q 119 668 149 634 q 89 751 89 701 q 190 908 89 847 q 432 969 290 969 z "},"4":{"ha":957,"x_min":68,"x_max":889,"o":"m 630 962 l 683 962 l 683 338 l 889 338 l 889 229 l 683 229 q 729 59 683 93 q 880 26 775 26 l 880 0 l 286 0 l 286 26 q 469 75 431 26 q 507 229 507 123 l 68 229 l 68 338 l 630 962 m 105 338 l 507 338 l 507 784 l 105 338 z "},"5":{"ha":929,"x_min":68,"x_max":861,"o":"m 191 972 q 347 939 284 946 q 509 932 410 932 q 674 939 599 932 q 829 967 749 946 l 831 951 q 655 805 770 857 q 389 752 541 752 q 266 755 307 752 q 188 766 224 759 l 151 495 q 287 562 221 539 q 466 585 352 585 q 762 491 663 578 q 861 285 861 403 q 746 73 861 159 q 433 -14 631 -14 q 161 40 254 -14 q 68 181 68 94 q 99 271 68 243 q 178 298 130 298 q 267 267 237 298 q 297 192 297 235 q 276 128 297 157 q 218 88 254 99 q 211 82 214 85 q 209 72 209 79 q 272 31 209 46 q 406 16 334 16 q 577 83 521 16 q 634 288 634 150 q 574 489 634 420 q 421 557 515 557 q 294 537 357 557 q 146 458 231 517 l 121 458 l 121 460 l 191 972 z "},"6":{"ha":929,"x_min":68,"x_max":861,"o":"m 524 967 q 733 900 663 967 q 804 754 804 833 q 776 676 804 705 q 699 648 748 648 q 615 679 644 648 q 586 754 586 711 q 606 815 586 790 q 671 859 626 841 q 682 866 678 861 q 686 877 686 870 q 642 920 686 901 q 519 939 599 939 q 359 864 427 939 q 292 460 292 788 q 389 553 321 517 q 545 588 458 588 q 768 501 675 588 q 861 292 861 414 q 753 73 861 159 q 498 -14 646 -14 q 183 122 298 -14 q 68 458 68 258 q 202 837 68 707 q 524 967 336 967 m 292 301 q 337 79 292 145 q 477 12 382 12 q 602 74 567 12 q 637 290 637 136 q 601 497 637 443 q 486 551 566 551 q 357 495 421 551 q 292 301 292 440 z "},"7":{"ha":890,"x_min":68,"x_max":822,"o":"m 112 948 l 822 948 l 822 927 q 559 369 639 625 q 479 0 479 113 l 255 0 q 437 393 268 146 q 701 770 606 641 l 339 770 q 142 705 178 770 q 94 562 106 640 l 68 562 l 112 948 z "},"8":{"ha":966,"x_min":68,"x_max":898,"o":"m 468 967 q 740 903 655 967 q 824 741 824 840 q 764 608 824 657 q 636 532 703 559 q 826 422 753 486 q 898 257 898 359 q 790 64 898 141 q 469 -14 682 -14 q 162 52 256 -14 q 68 213 68 117 q 140 361 68 304 q 328 449 213 418 q 171 554 222 493 q 119 699 119 614 q 205 889 119 812 q 468 967 292 967 m 237 784 q 345 638 237 684 q 602 549 452 592 q 667 621 644 574 q 690 752 690 667 q 631 892 690 845 q 470 939 572 939 q 294 893 351 939 q 237 784 237 848 m 222 204 q 291 62 222 113 q 466 12 359 12 q 685 68 614 12 q 755 190 755 124 q 642 328 755 279 q 359 435 528 377 q 270 355 318 416 q 222 204 222 293 z "},"9":{"ha":929,"x_min":68,"x_max":861,"o":"m 406 -14 q 196 53 267 -14 q 125 199 125 120 q 153 277 125 249 q 230 306 181 306 q 314 274 286 306 q 343 199 343 243 q 323 138 343 163 q 258 95 303 113 q 248 88 252 93 q 243 77 243 83 q 287 34 243 53 q 410 14 330 14 q 570 90 503 14 q 637 493 637 165 q 540 401 608 436 q 385 366 471 366 q 161 452 254 366 q 68 662 68 539 q 176 881 68 794 q 431 967 283 967 q 746 831 631 967 q 861 496 861 695 q 727 116 861 246 q 406 -14 593 -14 m 637 652 q 592 875 637 808 q 452 941 547 941 q 327 880 362 941 q 292 664 292 818 q 328 457 292 511 q 443 403 363 403 q 572 458 508 403 q 637 652 637 513 z "},"\u0000":{"ha":0,"x_min":0,"x_max":0,"o":""},"\u001d":{"ha":0,"x_min":0,"x_max":0,"o":""}," ":{"ha":473,"x_min":0,"x_max":0,"o":""}," ":{"ha":473,"x_min":0,"x_max":0,"o":""},"!":{"ha":393,"x_min":81,"x_max":312,"o":"m 81 100 q 115 183 81 150 q 197 217 149 217 q 278 183 244 217 q 312 101 312 149 q 278 20 312 54 q 197 -14 244 -14 q 116 20 151 -14 q 81 100 81 54 m 182 404 q 133 619 182 494 q 83 825 83 745 q 112 927 83 888 q 196 966 140 966 q 280 927 252 966 q 309 825 309 888 q 260 619 309 745 q 210 404 210 494 l 182 404 z "},"\"":{"ha":655,"x_min":81,"x_max":574,"o":"m 139 757 q 111 772 139 757 q 83 839 83 788 q 116 919 83 886 q 195 951 148 951 q 272 911 241 951 q 302 802 302 871 q 233 650 302 721 q 91 563 164 580 l 81 586 q 163 641 131 609 q 195 701 195 672 q 139 757 195 726 m 410 757 q 382 772 410 757 q 355 839 355 788 q 387 919 355 886 q 466 951 419 951 q 543 911 512 951 q 574 802 574 871 q 505 650 574 721 q 362 563 435 580 l 353 586 q 434 641 402 609 q 466 701 466 672 q 410 757 466 726 z "},"#":{"ha":773,"x_min":68,"x_max":705,"o":"m 345 497 l 296 330 l 436 330 l 486 497 l 345 497 m 389 830 l 444 830 l 361 554 l 502 554 l 584 830 l 637 830 l 555 554 l 705 554 l 688 498 l 538 498 l 491 330 l 652 330 l 635 273 l 473 273 l 392 0 l 338 0 l 419 273 l 280 273 l 198 0 l 144 0 l 226 273 l 68 273 l 85 330 l 242 330 l 292 498 l 121 498 l 138 554 l 309 554 l 389 830 z "},"$":{"ha":587,"x_min":65,"x_max":568,"o":"m 334 898 l 334 839 q 416 819 373 835 q 427 815 421 815 q 450 842 441 815 l 479 842 l 538 678 l 511 678 q 413 782 475 755 q 334 804 370 799 l 334 492 q 520 386 473 438 q 568 233 568 334 q 498 60 568 119 q 334 -10 429 0 l 334 -148 l 292 -148 l 292 -11 q 138 11 183 -9 q 127 14 132 14 q 103 -12 113 14 l 74 -12 l 74 180 l 102 180 q 191 49 132 74 q 292 24 250 24 l 292 392 q 119 480 168 431 q 65 625 65 533 q 138 781 65 720 q 292 840 199 832 l 292 898 l 334 898 m 334 379 l 334 26 q 456 82 406 36 q 507 208 507 127 q 467 314 507 275 q 334 379 431 349 m 292 505 l 292 806 q 176 764 223 803 q 127 659 127 722 q 159 570 127 602 q 292 505 189 539 z "},"%":{"ha":932,"x_min":36,"x_max":896,"o":"m 260 844 q 370 816 317 844 q 454 735 424 787 q 484 625 484 683 q 454 516 484 568 q 372 435 425 464 q 260 406 318 406 q 149 435 202 406 q 65 516 95 464 q 36 625 36 568 q 66 735 36 683 q 150 816 96 787 q 260 844 203 844 m 119 617 q 151 516 127 564 q 213 444 176 469 q 279 421 246 421 q 286 422 283 421 q 353 453 323 424 q 395 531 383 481 q 403 595 403 562 q 401 633 403 614 q 368 735 393 687 q 306 807 342 783 q 239 829 273 829 l 233 829 q 168 799 198 827 q 125 720 138 770 q 117 653 117 687 q 119 617 117 635 m 172 -17 l 716 829 l 764 829 l 222 -17 l 172 -17 m 672 427 q 782 398 728 427 q 866 317 836 370 q 896 208 896 265 q 867 98 896 150 q 784 17 838 46 q 672 -12 730 -12 q 561 17 614 -12 q 477 98 507 46 q 448 208 448 150 q 478 317 448 265 q 562 398 508 370 q 672 427 615 427 m 531 199 q 563 99 538 146 q 625 26 588 52 q 692 4 659 4 l 699 4 q 765 35 735 6 q 807 113 795 64 q 814 178 814 144 q 812 215 814 196 q 780 317 806 269 q 718 389 755 365 q 652 411 684 411 l 645 411 q 580 381 610 409 q 538 302 550 353 q 529 235 529 269 q 531 199 529 217 z "},"&":{"ha":974,"x_min":88,"x_max":959,"o":"m 608 113 l 288 509 q 183 459 219 509 q 148 341 148 409 q 169 236 148 288 q 227 140 189 184 q 323 67 269 93 q 435 41 377 41 q 533 61 486 41 q 608 113 580 81 m 807 0 q 726 15 774 0 q 629 91 678 29 q 528 19 591 48 q 389 -9 466 -9 q 172 78 256 -9 q 88 301 88 165 q 132 455 88 394 q 262 543 176 516 q 226 610 238 578 q 214 674 214 642 q 259 788 214 735 q 364 842 303 842 q 446 819 404 842 q 456 815 452 815 q 479 842 470 815 l 505 842 l 561 679 l 534 679 q 444 782 503 755 q 363 803 395 803 q 302 777 326 803 q 278 709 278 751 q 337 554 278 633 l 644 167 q 714 308 701 251 q 724 383 724 353 q 688 439 724 439 l 636 439 l 636 468 l 892 468 l 892 439 l 840 439 q 756 308 785 439 q 667 139 739 231 q 810 60 730 60 l 819 60 q 930 134 902 70 l 959 134 l 899 0 l 807 0 z "},"'":{"ha":384,"x_min":81,"x_max":302,"o":"m 139 757 q 111 772 139 757 q 83 839 83 788 q 116 919 83 886 q 195 951 148 951 q 272 911 241 951 q 302 802 302 871 q 233 650 302 721 q 91 563 164 580 l 81 586 q 163 641 131 609 q 195 701 195 672 q 139 757 195 726 z "},"(":{"ha":503,"x_min":81,"x_max":463,"o":"m 81 460 q 194 794 81 657 q 439 1004 306 932 l 456 981 q 329 724 354 845 q 304 460 304 602 q 329 194 304 312 q 463 -59 354 76 l 446 -83 q 194 123 306 -11 q 81 460 81 257 z "},")":{"ha":503,"x_min":41,"x_max":422,"o":"m 422 460 q 310 123 422 257 q 57 -83 197 -11 l 41 -59 q 174 194 149 76 q 199 460 199 312 q 174 724 199 602 q 47 981 149 845 l 64 1004 q 310 794 197 932 q 422 460 422 657 z "},"*":{"ha":714,"x_min":87,"x_max":627,"o":"m 346 668 q 310 791 342 747 q 277 866 277 836 q 299 913 277 895 q 357 931 321 931 q 414 913 393 931 q 436 866 436 895 q 404 791 436 836 q 368 668 371 747 q 474 740 442 696 q 535 794 506 785 q 556 798 546 798 q 587 789 572 798 q 621 739 610 773 q 627 705 627 721 q 623 679 627 691 q 584 644 612 652 q 560 640 574 640 q 503 652 536 640 q 451 659 479 659 q 374 648 416 659 q 476 569 424 585 q 547 528 528 552 q 559 492 559 511 q 557 477 559 484 q 520 428 549 449 q 468 408 494 408 q 464 409 466 408 q 418 434 435 410 q 400 514 400 458 q 357 635 401 569 q 314 514 313 570 q 296 435 314 458 q 251 410 279 411 q 246 409 248 409 q 193 429 220 409 q 157 477 164 450 q 155 492 155 485 q 168 528 155 511 q 238 569 186 553 q 339 648 290 585 q 262 659 297 659 q 211 652 234 659 q 153 640 177 640 q 130 644 140 640 q 92 680 102 653 q 87 706 87 692 q 92 739 87 722 q 127 789 104 774 q 159 798 142 798 q 179 795 169 798 q 239 741 208 785 q 346 668 271 696 z "},"+":{"ha":642,"x_min":81,"x_max":560,"o":"m 252 332 l 81 332 l 81 480 l 252 480 l 252 648 l 400 648 l 400 480 l 560 480 l 560 332 l 400 332 l 400 169 l 252 169 l 252 332 z "},",":{"ha":384,"x_min":81,"x_max":302,"o":"m 139 11 q 111 26 139 11 q 83 93 83 42 q 116 173 83 140 q 195 205 148 205 q 272 165 241 205 q 302 56 302 125 q 233 -96 302 -25 q 91 -183 164 -166 l 81 -160 q 163 -105 131 -137 q 195 -45 195 -74 q 139 11 195 -20 z "},"-":{"ha":642,"x_min":81,"x_max":560,"o":"m 81 332 l 81 480 l 560 480 l 560 332 l 81 332 z "},"­":{"ha":642,"x_min":81,"x_max":560,"o":"m 81 332 l 81 480 l 560 480 l 560 332 l 81 332 z "},".":{"ha":393,"x_min":81,"x_max":312,"o":"m 81 100 q 115 183 81 150 q 197 217 149 217 q 278 183 244 217 q 312 101 312 149 q 278 20 312 54 q 197 -14 244 -14 q 116 20 151 -14 q 81 100 81 54 z "},"/":{"ha":563,"x_min":14,"x_max":549,"o":"m 168 -124 l 14 -124 l 395 1040 l 549 1040 l 168 -124 z "},":":{"ha":393,"x_min":81,"x_max":312,"o":"m 81 100 q 115 183 81 150 q 197 217 149 217 q 278 183 244 217 q 312 101 312 149 q 278 20 312 54 q 197 -14 244 -14 q 116 20 151 -14 q 81 100 81 54 m 81 574 q 115 658 81 625 q 197 692 149 692 q 278 658 244 692 q 312 576 312 624 q 278 495 312 529 q 197 461 244 461 q 116 495 151 461 q 81 574 81 528 z "},";":{"ha":393,"x_min":81,"x_max":312,"o":"m 81 574 q 115 658 81 625 q 197 692 149 692 q 278 658 244 692 q 312 576 312 624 q 278 495 312 529 q 197 461 244 461 q 116 495 151 461 q 81 574 81 528 m 139 11 q 111 26 139 11 q 83 93 83 42 q 116 173 83 140 q 195 205 148 205 q 272 165 241 205 q 302 56 302 125 q 233 -96 302 -25 q 91 -183 164 -166 l 81 -160 q 163 -105 131 -137 q 195 -45 195 -74 q 139 11 195 -20 z "},";":{"ha":393,"x_min":81,"x_max":312,"o":"m 81 574 q 115 658 81 625 q 197 692 149 692 q 278 658 244 692 q 312 576 312 624 q 278 495 312 529 q 197 461 244 461 q 116 495 151 461 q 81 574 81 528 m 139 11 q 111 26 139 11 q 83 93 83 42 q 116 173 83 140 q 195 205 148 205 q 272 165 241 205 q 302 56 302 125 q 233 -96 302 -25 q 91 -183 164 -166 l 81 -160 q 163 -105 131 -137 q 195 -45 195 -74 q 139 11 195 -20 z "},"<":{"ha":587,"x_min":50,"x_max":536,"o":"m 536 621 l 175 414 l 536 208 l 536 112 l 50 390 l 50 438 l 536 718 l 536 621 z "},"=":{"ha":642,"x_min":81,"x_max":560,"o":"m 81 467 l 81 616 l 560 616 l 560 467 l 81 467 m 81 196 l 81 345 l 560 345 l 560 196 l 81 196 z "},">":{"ha":587,"x_min":50,"x_max":536,"o":"m 50 718 l 536 438 l 536 390 l 50 112 l 50 208 l 412 414 l 50 621 l 50 718 z "},"?":{"ha":842,"x_min":81,"x_max":760,"o":"m 398 965 q 667 892 574 965 q 760 722 760 819 q 594 514 760 585 q 428 345 428 443 l 399 345 l 399 347 q 466 505 399 412 q 533 721 533 597 q 492 885 533 833 q 378 937 451 937 q 228 896 290 937 q 165 827 165 854 q 174 810 165 817 q 212 803 182 803 q 288 771 262 803 q 313 682 313 740 q 284 615 313 642 q 199 588 254 588 q 112 627 143 588 q 81 722 81 665 q 173 895 81 825 q 398 965 264 965 m 299 100 q 333 183 299 150 q 415 217 366 217 q 496 183 462 217 q 530 101 530 149 q 496 20 530 54 q 415 -14 462 -14 q 334 20 369 -14 q 299 100 299 54 z "},"@":{"ha":1168,"x_min":58,"x_max":1089,"o":"m 562 360 q 475 314 515 354 q 436 199 436 273 q 473 86 436 136 q 578 36 510 36 q 652 132 635 39 l 652 408 q 562 360 621 372 m 787 17 q 729 27 751 18 q 693 58 707 37 q 646 21 677 37 q 569 5 615 5 q 420 63 486 5 q 355 199 355 121 q 386 295 356 249 q 463 361 416 341 q 563 390 509 382 q 627 415 602 399 q 652 458 652 430 q 628 530 650 498 q 553 562 606 562 q 483 528 511 562 q 454 456 454 494 l 428 456 l 428 548 q 469 571 428 559 q 572 583 511 583 q 684 546 635 582 q 733 454 733 509 l 733 113 q 787 45 733 45 q 942 156 895 66 q 989 378 989 247 q 855 690 978 572 q 578 799 741 799 q 351 720 459 799 q 195 514 242 640 q 156 305 156 411 q 231 9 156 124 q 407 -159 306 -106 q 591 -212 509 -212 q 924 -92 750 -212 l 924 -136 q 594 -242 772 -242 q 327 -171 455 -242 q 129 27 199 -100 q 58 294 58 154 q 130 563 58 434 q 330 761 201 692 q 594 830 458 830 q 946 697 803 830 q 1089 369 1089 564 q 987 115 1089 213 q 787 17 886 18 z "},"A":{"ha":1190,"x_min":18,"x_max":1173,"o":"m 328 321 l 699 321 l 513 739 l 328 321 m 580 965 l 610 965 l 1006 106 q 1078 42 1033 57 q 1173 26 1122 26 l 1173 0 l 621 0 l 621 26 q 767 42 739 26 q 796 90 796 57 q 713 296 795 124 l 318 296 l 277 203 q 270 148 270 186 q 314 56 276 85 q 406 26 353 26 l 406 0 l 18 0 l 18 26 q 307 347 183 26 l 580 965 z "},"a":{"ha":1190,"x_min":18,"x_max":1173,"o":"m 328 321 l 699 321 l 513 739 l 328 321 m 580 965 l 610 965 l 1006 106 q 1078 42 1033 57 q 1173 26 1122 26 l 1173 0 l 621 0 l 621 26 q 767 42 739 26 q 796 90 796 57 q 713 296 795 124 l 318 296 l 277 203 q 270 148 270 186 q 314 56 276 85 q 406 26 353 26 l 406 0 l 18 0 l 18 26 q 307 347 183 26 l 580 965 z "},"B":{"ha":1328,"x_min":102,"x_max":1226,"o":"m 502 481 l 502 26 l 710 26 q 920 85 848 26 q 993 259 993 145 q 914 423 993 365 q 668 481 835 481 l 502 481 m 502 924 l 502 509 l 675 509 q 905 573 849 509 q 960 727 960 636 q 911 871 960 819 q 711 924 862 924 l 502 924 m 828 947 q 1091 879 1000 947 q 1183 715 1183 812 q 1070 562 1183 620 q 885 497 958 505 q 1133 410 1039 471 q 1226 241 1226 349 q 1106 61 1226 122 q 842 0 987 0 l 102 0 l 102 26 q 262 73 224 26 q 300 218 300 119 l 300 728 q 262 874 300 828 q 102 920 224 920 l 102 947 l 828 947 z "},"b":{"ha":1328,"x_min":102,"x_max":1226,"o":"m 502 481 l 502 26 l 710 26 q 920 85 848 26 q 993 259 993 145 q 914 423 993 365 q 668 481 835 481 l 502 481 m 502 924 l 502 509 l 675 509 q 905 573 849 509 q 960 727 960 636 q 911 871 960 819 q 711 924 862 924 l 502 924 m 828 947 q 1091 879 1000 947 q 1183 715 1183 812 q 1070 562 1183 620 q 885 497 958 505 q 1133 410 1039 471 q 1226 241 1226 349 q 1106 61 1226 122 q 842 0 987 0 l 102 0 l 102 26 q 262 73 224 26 q 300 218 300 119 l 300 728 q 262 874 300 828 q 102 920 224 920 l 102 947 l 828 947 z "},"C":{"ha":1126,"x_min":68,"x_max":1072,"o":"m 556 968 q 790 911 709 968 q 895 853 870 853 q 1015 953 939 853 l 1040 953 l 1059 499 l 1038 499 q 841 838 966 732 q 581 943 717 943 q 373 821 434 943 q 313 467 313 699 q 400 102 313 195 q 621 10 487 10 q 903 110 794 10 q 1044 337 1012 210 l 1072 337 q 926 93 1043 204 q 609 -18 810 -18 q 225 135 382 -18 q 68 478 68 287 q 220 822 68 675 q 556 968 372 968 z "},"c":{"ha":1126,"x_min":68,"x_max":1072,"o":"m 556 968 q 790 911 709 968 q 895 853 870 853 q 1015 953 939 853 l 1040 953 l 1059 499 l 1038 499 q 841 838 966 732 q 581 943 717 943 q 373 821 434 943 q 313 467 313 699 q 400 102 313 195 q 621 10 487 10 q 903 110 794 10 q 1044 337 1012 210 l 1072 337 q 926 93 1043 204 q 609 -18 810 -18 q 225 135 382 -18 q 68 478 68 287 q 220 822 68 675 q 556 968 372 968 z "},"D":{"ha":1398,"x_min":102,"x_max":1340,"o":"m 509 922 l 509 28 l 662 28 q 1023 151 941 28 q 1104 442 1104 275 l 1104 493 q 1003 811 1104 701 q 655 922 903 922 l 509 922 m 766 947 q 1191 796 1042 947 q 1340 477 1340 645 l 1340 447 q 1180 129 1340 258 q 803 0 1020 0 l 102 0 l 102 26 q 272 73 233 26 q 310 218 310 119 l 310 728 q 272 874 310 828 q 102 920 233 920 l 102 947 l 766 947 z "},"d":{"ha":1398,"x_min":102,"x_max":1340,"o":"m 509 922 l 509 28 l 662 28 q 1023 151 941 28 q 1104 442 1104 275 l 1104 493 q 1003 811 1104 701 q 655 922 903 922 l 509 922 m 766 947 q 1191 796 1042 947 q 1340 477 1340 645 l 1340 447 q 1180 129 1340 258 q 803 0 1020 0 l 102 0 l 102 26 q 272 73 233 26 q 310 218 310 119 l 310 728 q 272 874 310 828 q 102 920 233 920 l 102 947 l 766 947 z "},"E":{"ha":1238,"x_min":102,"x_max":1137,"o":"m 500 449 l 500 26 l 592 26 q 976 128 876 26 q 1109 391 1077 231 l 1137 391 l 1137 0 l 102 0 l 102 26 q 262 73 224 26 q 300 218 300 119 l 300 728 q 262 874 300 828 q 102 920 224 920 l 102 947 l 1112 947 l 1112 578 l 1088 578 q 936 858 1029 793 q 621 922 842 922 l 500 922 l 500 475 q 708 546 636 475 q 792 773 780 617 l 817 773 l 817 151 l 792 151 q 708 378 780 307 q 500 449 636 449 z "},"e":{"ha":1238,"x_min":102,"x_max":1137,"o":"m 500 449 l 500 26 l 592 26 q 976 128 876 26 q 1109 391 1077 231 l 1137 391 l 1137 0 l 102 0 l 102 26 q 262 73 224 26 q 300 218 300 119 l 300 728 q 262 874 300 828 q 102 920 224 920 l 102 947 l 1112 947 l 1112 578 l 1088 578 q 936 858 1029 793 q 621 922 842 922 l 500 922 l 500 475 q 708 546 636 475 q 792 773 780 617 l 817 773 l 817 151 l 792 151 q 708 378 780 307 q 500 449 636 449 z "},"F":{"ha":1173,"x_min":102,"x_max":1139,"o":"m 497 488 l 497 218 q 534 73 497 119 q 731 28 572 28 l 731 0 l 102 0 l 102 26 q 262 73 224 26 q 300 218 300 119 l 300 728 q 262 874 300 828 q 102 920 224 920 l 102 947 l 1139 947 l 1139 537 l 1113 537 q 970 844 1065 766 q 648 922 875 922 l 497 922 l 497 511 q 685 553 629 511 q 780 773 742 595 l 805 773 l 805 229 l 780 229 q 675 447 742 407 q 497 488 608 488 z "},"f":{"ha":1173,"x_min":102,"x_max":1139,"o":"m 497 488 l 497 218 q 534 73 497 119 q 731 28 572 28 l 731 0 l 102 0 l 102 26 q 262 73 224 26 q 300 218 300 119 l 300 728 q 262 874 300 828 q 102 920 224 920 l 102 947 l 1139 947 l 1139 537 l 1113 537 q 970 844 1065 766 q 648 922 875 922 l 497 922 l 497 511 q 685 553 629 511 q 780 773 742 595 l 805 773 l 805 229 l 780 229 q 675 447 742 407 q 497 488 608 488 z "},"G":{"ha":1330,"x_min":54,"x_max":1297,"o":"m 564 968 q 824 916 715 968 q 964 863 934 863 q 1057 945 1005 865 l 1086 945 l 1093 536 l 1070 536 q 878 842 1001 745 q 593 939 755 939 q 394 853 486 939 q 302 465 302 768 q 384 112 302 214 q 644 10 465 10 q 831 59 758 10 q 903 207 903 109 q 845 374 903 341 q 674 406 787 406 l 646 406 l 646 432 l 1297 432 l 1297 406 q 1152 365 1200 406 q 1103 180 1103 324 l 1103 10 l 1077 10 q 972 57 1028 57 q 827 20 911 57 q 629 -18 742 -18 q 209 125 364 -18 q 54 461 54 269 q 216 827 54 686 q 564 968 378 968 z "},"g":{"ha":1330,"x_min":54,"x_max":1297,"o":"m 564 968 q 824 916 715 968 q 964 863 934 863 q 1057 945 1005 865 l 1086 945 l 1093 536 l 1070 536 q 878 842 1001 745 q 593 939 755 939 q 394 853 486 939 q 302 465 302 768 q 384 112 302 214 q 644 10 465 10 q 831 59 758 10 q 903 207 903 109 q 845 374 903 341 q 674 406 787 406 l 646 406 l 646 432 l 1297 432 l 1297 406 q 1152 365 1200 406 q 1103 180 1103 324 l 1103 10 l 1077 10 q 972 57 1028 57 q 827 20 911 57 q 629 -18 742 -18 q 209 125 364 -18 q 54 461 54 269 q 216 827 54 686 q 564 968 378 968 z "},"H":{"ha":1510,"x_min":102,"x_max":1409,"o":"m 500 467 l 500 218 q 538 73 500 119 q 699 26 576 26 l 699 0 l 102 0 l 102 26 q 262 73 224 26 q 300 218 300 119 l 300 728 q 262 874 300 828 q 102 920 224 920 l 102 947 l 699 947 l 699 920 q 538 874 576 920 q 500 728 500 828 l 500 495 l 1010 495 l 1010 728 q 972 874 1010 828 q 812 920 934 920 l 812 947 l 1409 947 l 1409 920 q 1248 874 1286 920 q 1210 728 1210 828 l 1210 218 q 1248 73 1210 119 q 1409 26 1286 26 l 1409 0 l 812 0 l 812 26 q 972 73 934 26 q 1010 218 1010 119 l 1010 467 l 500 467 z "},"h":{"ha":1510,"x_min":102,"x_max":1409,"o":"m 500 467 l 500 218 q 538 73 500 119 q 699 26 576 26 l 699 0 l 102 0 l 102 26 q 262 73 224 26 q 300 218 300 119 l 300 728 q 262 874 300 828 q 102 920 224 920 l 102 947 l 699 947 l 699 920 q 538 874 576 920 q 500 728 500 828 l 500 495 l 1010 495 l 1010 728 q 972 874 1010 828 q 812 920 934 920 l 812 947 l 1409 947 l 1409 920 q 1248 874 1286 920 q 1210 728 1210 828 l 1210 218 q 1248 73 1210 119 q 1409 26 1286 26 l 1409 0 l 812 0 l 812 26 q 972 73 934 26 q 1010 218 1010 119 l 1010 467 l 500 467 z "},"I":{"ha":733,"x_min":68,"x_max":665,"o":"m 267 728 q 228 874 267 828 q 68 920 190 920 l 68 947 l 665 947 l 665 920 q 504 874 543 920 q 466 728 466 828 l 466 218 q 504 73 466 119 q 665 26 543 26 l 665 0 l 68 0 l 68 26 q 228 73 190 26 q 267 218 267 119 l 267 728 z "},"i":{"ha":733,"x_min":68,"x_max":665,"o":"m 267 728 q 228 874 267 828 q 68 920 190 920 l 68 947 l 665 947 l 665 920 q 504 874 543 920 q 466 728 466 828 l 466 218 q 504 73 466 119 q 665 26 543 26 l 665 0 l 68 0 l 68 26 q 228 73 190 26 q 267 218 267 119 l 267 728 z "},"J":{"ha":961,"x_min":18,"x_max":904,"o":"m 307 920 l 251 920 l 251 947 l 904 947 l 904 920 q 744 874 782 920 q 705 728 705 828 l 705 269 q 601 58 705 137 q 328 -21 496 -21 q 105 44 186 -20 q 18 195 24 109 q 55 297 18 268 q 143 327 93 327 q 234 293 209 326 q 260 203 259 260 q 152 85 260 122 q 142 74 142 83 q 183 32 142 53 q 302 7 223 10 q 447 50 388 7 q 506 245 506 94 l 506 728 q 468 874 506 828 q 307 920 429 920 z "},"j":{"ha":961,"x_min":18,"x_max":904,"o":"m 307 920 l 251 920 l 251 947 l 904 947 l 904 920 q 744 874 782 920 q 705 728 705 828 l 705 269 q 601 58 705 137 q 328 -21 496 -21 q 105 44 186 -20 q 18 195 24 109 q 55 297 18 268 q 143 327 93 327 q 234 293 209 326 q 260 203 259 260 q 152 85 260 122 q 142 74 142 83 q 183 32 142 53 q 302 7 223 10 q 447 50 388 7 q 506 245 506 94 l 506 728 q 468 874 506 828 q 307 920 429 920 z "},"K":{"ha":1398,"x_min":70,"x_max":1364,"o":"m 468 348 l 961 739 q 990 818 990 768 q 956 888 987 863 q 852 920 924 913 l 808 920 l 808 947 l 1364 947 l 1364 920 q 968 706 1219 920 l 838 602 l 1144 136 q 1241 49 1198 71 q 1364 26 1284 26 l 1364 0 l 776 0 l 776 26 q 907 44 877 26 q 938 81 938 61 q 925 122 938 100 l 692 484 l 468 306 l 468 218 q 506 73 468 119 q 667 26 545 26 l 667 0 l 70 0 l 70 26 q 230 73 192 26 q 269 218 269 119 l 269 728 q 230 874 269 828 q 70 920 192 920 l 70 947 l 667 947 l 667 920 q 506 874 545 920 q 468 728 468 828 l 468 348 z "},"k":{"ha":1398,"x_min":70,"x_max":1364,"o":"m 468 348 l 961 739 q 990 818 990 768 q 956 888 987 863 q 852 920 924 913 l 808 920 l 808 947 l 1364 947 l 1364 920 q 968 706 1219 920 l 838 602 l 1144 136 q 1241 49 1198 71 q 1364 26 1284 26 l 1364 0 l 776 0 l 776 26 q 907 44 877 26 q 938 81 938 61 q 925 122 938 100 l 692 484 l 468 306 l 468 218 q 506 73 468 119 q 667 26 545 26 l 667 0 l 70 0 l 70 26 q 230 73 192 26 q 269 218 269 119 l 269 728 q 230 874 269 828 q 70 920 192 920 l 70 947 l 667 947 l 667 920 q 506 874 545 920 q 468 728 468 828 l 468 348 z "},"L":{"ha":1159,"x_min":68,"x_max":1125,"o":"m 68 947 l 715 947 l 715 922 q 528 890 582 922 q 475 711 475 858 l 475 26 l 660 26 q 926 95 827 26 q 1098 419 1025 163 l 1125 419 l 1125 0 l 68 0 l 68 26 q 242 77 208 26 q 276 254 276 129 l 276 711 q 235 878 276 833 q 68 922 194 922 l 68 947 z "},"l":{"ha":1159,"x_min":68,"x_max":1125,"o":"m 68 947 l 715 947 l 715 922 q 528 890 582 922 q 475 711 475 858 l 475 26 l 660 26 q 926 95 827 26 q 1098 419 1025 163 l 1125 419 l 1125 0 l 68 0 l 68 26 q 242 77 208 26 q 276 254 276 129 l 276 711 q 235 878 276 833 q 68 922 194 922 l 68 947 z "},"M":{"ha":1600,"x_min":51,"x_max":1529,"o":"m 446 947 l 804 224 l 1155 947 l 1529 947 l 1529 920 q 1362 874 1400 920 q 1324 728 1324 828 l 1324 218 q 1362 73 1324 119 q 1529 26 1400 26 l 1529 0 l 920 0 l 920 26 q 1094 73 1055 26 q 1132 218 1132 119 l 1132 840 l 724 0 l 696 0 l 284 842 l 284 259 q 333 93 284 159 q 490 26 381 26 l 490 0 l 51 0 l 51 26 q 208 86 159 26 q 256 245 256 146 l 256 728 q 218 874 256 828 q 51 920 180 920 l 51 947 l 446 947 z "},"m":{"ha":1600,"x_min":51,"x_max":1529,"o":"m 446 947 l 804 224 l 1155 947 l 1529 947 l 1529 920 q 1362 874 1400 920 q 1324 728 1324 828 l 1324 218 q 1362 73 1324 119 q 1529 26 1400 26 l 1529 0 l 920 0 l 920 26 q 1094 73 1055 26 q 1132 218 1132 119 l 1132 840 l 724 0 l 696 0 l 284 842 l 284 259 q 333 93 284 159 q 490 26 381 26 l 490 0 l 51 0 l 51 26 q 208 86 159 26 q 256 245 256 146 l 256 728 q 218 874 256 828 q 51 920 180 920 l 51 947 l 446 947 z "},"N":{"ha":1396,"x_min":51,"x_max":1352,"o":"m 69 947 l 449 947 l 1108 271 l 1108 606 q 1044 859 1108 798 q 884 920 981 920 l 884 947 l 1352 947 l 1352 920 q 1195 865 1257 920 q 1134 600 1134 810 l 1134 -9 l 1111 -9 l 294 827 l 294 295 q 361 69 294 112 q 546 26 429 26 l 546 0 l 51 0 l 51 26 q 199 67 130 26 q 268 262 268 108 l 268 720 q 216 881 268 842 q 69 920 164 920 l 69 947 z "},"n":{"ha":1396,"x_min":51,"x_max":1352,"o":"m 69 947 l 449 947 l 1108 271 l 1108 606 q 1044 859 1108 798 q 884 920 981 920 l 884 947 l 1352 947 l 1352 920 q 1195 865 1257 920 q 1134 600 1134 810 l 1134 -9 l 1111 -9 l 294 827 l 294 295 q 361 69 294 112 q 546 26 429 26 l 546 0 l 51 0 l 51 26 q 199 67 130 26 q 268 262 268 108 l 268 720 q 216 881 268 842 q 69 920 164 920 l 69 947 z "},"O":{"ha":1274,"x_min":68,"x_max":1206,"o":"m 637 966 q 1046 819 886 966 q 1206 474 1206 671 q 1043 126 1206 271 q 637 -18 880 -18 q 235 126 401 -18 q 68 474 68 271 q 231 822 68 678 q 637 966 395 966 m 640 939 q 401 809 490 939 q 313 474 313 680 q 405 139 313 269 q 640 10 497 10 q 877 139 788 10 q 966 474 966 269 q 873 809 966 680 q 640 939 781 939 z "},"o":{"ha":1274,"x_min":68,"x_max":1206,"o":"m 637 966 q 1046 819 886 966 q 1206 474 1206 671 q 1043 126 1206 271 q 637 -18 880 -18 q 235 126 401 -18 q 68 474 68 271 q 231 822 68 678 q 637 966 395 966 m 640 939 q 401 809 490 939 q 313 474 313 680 q 405 139 313 269 q 640 10 497 10 q 877 139 788 10 q 966 474 966 269 q 873 809 966 680 q 640 939 781 939 z "},"P":{"ha":1194,"x_min":77,"x_max":1160,"o":"m 473 922 l 473 452 l 625 452 q 878 518 820 452 q 936 669 936 585 l 936 706 q 874 863 936 804 q 649 922 812 922 l 473 922 m 473 424 l 473 218 q 510 73 473 119 q 707 28 547 28 l 707 0 l 77 0 l 77 26 q 238 73 199 26 q 276 218 276 119 l 276 728 q 238 874 276 828 q 77 920 199 920 l 77 947 l 703 947 q 1056 875 951 947 q 1160 701 1160 804 l 1160 671 q 1047 490 1160 557 q 783 424 935 424 l 473 424 z "},"p":{"ha":1194,"x_min":77,"x_max":1160,"o":"m 473 922 l 473 452 l 625 452 q 878 518 820 452 q 936 669 936 585 l 936 706 q 874 863 936 804 q 649 922 812 922 l 473 922 m 473 424 l 473 218 q 510 73 473 119 q 707 28 547 28 l 707 0 l 77 0 l 77 26 q 238 73 199 26 q 276 218 276 119 l 276 728 q 238 874 276 828 q 77 920 199 920 l 77 947 l 703 947 q 1056 875 951 947 q 1160 701 1160 804 l 1160 671 q 1047 490 1160 557 q 783 424 935 424 l 473 424 z "},"Q":{"ha":1297,"x_min":47,"x_max":1243,"o":"m 804 79 q 801 83 803 81 q 556 236 665 236 q 496 199 520 236 l 475 208 q 517 281 475 245 q 632 317 559 317 q 892 203 752 317 q 945 474 945 315 q 853 809 945 680 q 619 939 761 939 q 381 809 470 939 q 292 474 292 680 q 385 139 292 269 q 619 10 477 10 q 804 79 728 10 m 1008 114 q 1114 69 1076 69 q 1221 144 1179 69 l 1243 133 q 1170 -9 1218 51 q 1040 -69 1122 -69 q 858 25 959 -69 q 617 -18 749 -18 q 214 126 381 -18 q 47 474 47 271 q 211 822 47 678 q 617 966 374 966 q 1026 819 866 966 q 1186 474 1186 671 q 1023 127 1186 271 q 1008 114 1015 120 z "},"q":{"ha":1297,"x_min":47,"x_max":1243,"o":"m 804 79 q 801 83 803 81 q 556 236 665 236 q 496 199 520 236 l 475 208 q 517 281 475 245 q 632 317 559 317 q 892 203 752 317 q 945 474 945 315 q 853 809 945 680 q 619 939 761 939 q 381 809 470 939 q 292 474 292 680 q 385 139 292 269 q 619 10 477 10 q 804 79 728 10 m 1008 114 q 1114 69 1076 69 q 1221 144 1179 69 l 1243 133 q 1170 -9 1218 51 q 1040 -69 1122 -69 q 858 25 959 -69 q 617 -18 749 -18 q 214 126 381 -18 q 47 474 47 271 q 211 822 47 678 q 617 966 374 966 q 1026 819 866 966 q 1186 474 1186 671 q 1023 127 1186 271 q 1008 114 1015 120 z "},"R":{"ha":1430,"x_min":68,"x_max":1362,"o":"m 466 488 l 709 488 q 951 548 891 488 q 1012 694 1012 608 l 1012 715 q 949 862 1012 802 q 701 922 887 922 l 466 922 l 466 488 m 845 947 q 1153 875 1066 947 q 1239 718 1239 803 l 1239 688 q 1120 528 1239 592 q 828 463 1001 463 l 707 463 q 871 376 821 397 q 1000 336 920 355 l 1163 107 q 1249 41 1202 56 q 1362 26 1297 26 l 1362 0 l 1003 0 l 674 463 l 466 463 l 466 218 q 504 73 466 119 q 665 26 543 26 l 665 0 l 68 0 l 68 26 q 228 73 190 26 q 267 218 267 119 l 267 728 q 228 874 267 828 q 68 920 190 920 l 68 947 l 845 947 z "},"r":{"ha":1430,"x_min":68,"x_max":1362,"o":"m 466 488 l 709 488 q 951 548 891 488 q 1012 694 1012 608 l 1012 715 q 949 862 1012 802 q 701 922 887 922 l 466 922 l 466 488 m 845 947 q 1153 875 1066 947 q 1239 718 1239 803 l 1239 688 q 1120 528 1239 592 q 828 463 1001 463 l 707 463 q 871 376 821 397 q 1000 336 920 355 l 1163 107 q 1249 41 1202 56 q 1362 26 1297 26 l 1362 0 l 1003 0 l 674 463 l 466 463 l 466 218 q 504 73 466 119 q 665 26 543 26 l 665 0 l 68 0 l 68 26 q 228 73 190 26 q 267 218 267 119 l 267 728 q 228 874 267 828 q 68 920 190 920 l 68 947 l 845 947 z "},"S":{"ha":1109,"x_min":85,"x_max":1024,"o":"m 450 981 q 713 925 602 981 q 853 868 825 868 q 922 945 901 868 l 950 945 l 950 621 l 922 621 q 740 875 873 794 q 459 956 607 956 q 280 902 334 956 q 226 794 226 847 q 492 627 226 680 q 896 498 768 565 q 1024 282 1024 431 q 922 81 1024 162 q 654 0 820 0 q 410 48 505 0 q 244 97 316 97 q 121 0 160 97 l 98 0 l 98 440 l 124 440 q 316 139 151 252 q 654 26 480 26 q 830 81 772 26 q 888 195 888 136 q 749 338 888 292 q 369 449 611 385 q 143 562 201 501 q 85 715 85 623 q 194 908 85 834 q 450 981 304 981 z "},"s":{"ha":1109,"x_min":85,"x_max":1024,"o":"m 450 981 q 713 925 602 981 q 853 868 825 868 q 922 945 901 868 l 950 945 l 950 621 l 922 621 q 740 875 873 794 q 459 956 607 956 q 280 902 334 956 q 226 794 226 847 q 492 627 226 680 q 896 498 768 565 q 1024 282 1024 431 q 922 81 1024 162 q 654 0 820 0 q 410 48 505 0 q 244 97 316 97 q 121 0 160 97 l 98 0 l 98 440 l 124 440 q 316 139 151 252 q 654 26 480 26 q 830 81 772 26 q 888 195 888 136 q 749 338 888 292 q 369 449 611 385 q 143 562 201 501 q 85 715 85 623 q 194 908 85 834 q 450 981 304 981 z "},"T":{"ha":1278,"x_min":81,"x_max":1196,"o":"m 739 218 q 777 73 739 119 q 937 26 815 26 l 1053 26 l 1053 0 l 224 0 l 224 26 l 340 26 q 501 73 463 26 q 539 218 539 119 l 539 922 l 495 922 q 217 779 315 922 q 106 465 118 637 l 81 465 l 81 947 l 1196 947 l 1196 465 l 1171 465 q 1061 779 1160 637 q 783 922 962 922 l 739 922 l 739 218 z "},"t":{"ha":1278,"x_min":81,"x_max":1196,"o":"m 739 218 q 777 73 739 119 q 937 26 815 26 l 1053 26 l 1053 0 l 224 0 l 224 26 l 340 26 q 501 73 463 26 q 539 218 539 119 l 539 922 l 495 922 q 217 779 315 922 q 106 465 118 637 l 81 465 l 81 947 l 1196 947 l 1196 465 l 1171 465 q 1061 779 1160 637 q 783 922 962 922 l 739 922 l 739 218 z "},"U":{"ha":1378,"x_min":34,"x_max":1344,"o":"m 34 947 l 693 947 l 693 920 q 499 887 553 920 q 446 694 446 854 l 446 317 q 527 74 446 142 q 781 7 609 7 q 1024 78 926 7 q 1122 311 1122 149 l 1122 595 q 1061 863 1122 805 q 883 920 1000 920 l 883 947 l 1344 947 l 1344 920 q 1201 861 1257 920 q 1145 634 1145 801 l 1145 292 q 1036 58 1145 136 q 735 -21 928 -21 q 353 66 458 -21 q 247 275 247 153 l 247 692 q 190 887 247 854 q 34 920 134 920 l 34 947 z "},"u":{"ha":1378,"x_min":34,"x_max":1344,"o":"m 34 947 l 693 947 l 693 920 q 499 887 553 920 q 446 694 446 854 l 446 317 q 527 74 446 142 q 781 7 609 7 q 1024 78 926 7 q 1122 311 1122 149 l 1122 595 q 1061 863 1122 805 q 883 920 1000 920 l 883 947 l 1344 947 l 1344 920 q 1201 861 1257 920 q 1145 634 1145 801 l 1145 292 q 1036 58 1145 136 q 735 -21 928 -21 q 353 66 458 -21 q 247 275 247 153 l 247 692 q 190 887 247 854 q 34 920 134 920 l 34 947 z "},"V":{"ha":1187,"x_min":18,"x_max":1170,"o":"m 18 947 l 573 947 l 573 920 q 434 901 460 920 q 406 854 408 882 q 419 790 406 819 q 492 629 433 760 l 683 208 l 913 734 q 925 794 925 768 q 881 889 925 857 q 788 920 836 920 l 788 947 l 1170 947 l 1170 920 q 1039 863 1101 920 q 946 730 977 805 l 611 -21 l 587 -21 l 189 833 q 124 896 170 871 q 18 920 78 920 l 18 947 z "},"v":{"ha":1187,"x_min":18,"x_max":1170,"o":"m 18 947 l 573 947 l 573 920 q 434 901 460 920 q 406 854 408 882 q 419 790 406 819 q 492 629 433 760 l 683 208 l 913 734 q 925 794 925 768 q 881 889 925 857 q 788 920 836 920 l 788 947 l 1170 947 l 1170 920 q 1039 863 1101 920 q 946 730 977 805 l 611 -21 l 587 -21 l 189 833 q 124 896 170 871 q 18 920 78 920 l 18 947 z "},"W":{"ha":1623,"x_min":18,"x_max":1605,"o":"m 18 947 l 513 947 l 513 920 q 418 900 439 920 q 397 854 397 880 q 416 763 397 815 q 473 611 435 710 l 608 235 l 800 713 q 719 868 766 816 q 598 920 671 920 l 598 947 l 1115 947 l 1115 920 q 990 900 1018 920 q 963 850 963 880 q 977 776 963 818 q 1017 665 991 734 l 1174 235 l 1375 749 q 1387 791 1384 779 q 1389 819 1389 804 q 1340 898 1388 875 q 1223 920 1292 920 l 1223 947 l 1605 947 l 1605 920 q 1461 844 1513 920 q 1395 726 1410 768 l 1101 -21 l 1071 -21 l 812 678 l 534 -21 l 506 -21 l 201 801 q 144 880 186 840 q 18 920 103 920 l 18 947 z "},"w":{"ha":1623,"x_min":18,"x_max":1605,"o":"m 18 947 l 513 947 l 513 920 q 418 900 439 920 q 397 854 397 880 q 416 763 397 815 q 473 611 435 710 l 608 235 l 800 713 q 719 868 766 816 q 598 920 671 920 l 598 947 l 1115 947 l 1115 920 q 990 900 1018 920 q 963 850 963 880 q 977 776 963 818 q 1017 665 991 734 l 1174 235 l 1375 749 q 1387 791 1384 779 q 1389 819 1389 804 q 1340 898 1388 875 q 1223 920 1292 920 l 1223 947 l 1605 947 l 1605 920 q 1461 844 1513 920 q 1395 726 1410 768 l 1101 -21 l 1071 -21 l 812 678 l 534 -21 l 506 -21 l 201 801 q 144 880 186 840 q 18 920 103 920 l 18 947 z "},"X":{"ha":1409,"x_min":47,"x_max":1362,"o":"m 47 947 l 665 947 l 665 920 q 570 902 599 920 q 541 861 541 884 q 635 715 541 817 l 767 565 l 926 725 q 961 783 954 760 q 968 826 968 806 q 928 891 968 863 q 813 920 887 920 l 813 947 l 1325 947 l 1325 920 q 1189 881 1287 920 q 998 757 1090 842 l 785 542 l 1128 144 q 1250 52 1190 77 q 1362 26 1310 26 l 1362 0 l 730 0 l 730 26 q 869 42 833 26 q 906 85 906 58 q 893 129 906 108 q 852 178 880 150 l 654 410 l 465 210 q 442 173 450 192 q 434 125 434 154 q 493 47 434 67 q 614 26 551 26 l 614 0 l 47 0 l 47 26 q 262 99 142 26 q 475 264 381 171 l 637 431 l 387 718 q 174 903 248 886 q 47 920 100 920 l 47 947 z "},"x":{"ha":1409,"x_min":47,"x_max":1362,"o":"m 47 947 l 665 947 l 665 920 q 570 902 599 920 q 541 861 541 884 q 635 715 541 817 l 767 565 l 926 725 q 961 783 954 760 q 968 826 968 806 q 928 891 968 863 q 813 920 887 920 l 813 947 l 1325 947 l 1325 920 q 1189 881 1287 920 q 998 757 1090 842 l 785 542 l 1128 144 q 1250 52 1190 77 q 1362 26 1310 26 l 1362 0 l 730 0 l 730 26 q 869 42 833 26 q 906 85 906 58 q 893 129 906 108 q 852 178 880 150 l 654 410 l 465 210 q 442 173 450 192 q 434 125 434 154 q 493 47 434 67 q 614 26 551 26 l 614 0 l 47 0 l 47 26 q 262 99 142 26 q 475 264 381 171 l 637 431 l 387 718 q 174 903 248 886 q 47 920 100 920 l 47 947 z "},"Y":{"ha":1310,"x_min":18,"x_max":1293,"o":"m 18 947 l 626 947 l 626 920 l 568 920 q 488 903 508 920 q 469 859 469 886 q 502 792 469 840 q 603 657 536 745 l 750 454 l 981 762 q 997 795 993 783 q 1001 822 1000 808 q 957 898 1001 876 q 804 920 913 920 l 804 947 l 1293 947 l 1293 920 q 1154 881 1234 920 q 1005 749 1075 841 l 760 421 l 760 250 q 806 65 760 103 q 996 26 852 26 l 996 0 l 321 0 l 321 26 q 527 78 492 26 q 562 252 562 129 l 562 401 l 256 817 q 176 888 228 857 q 18 920 124 920 l 18 947 z "},"y":{"ha":1310,"x_min":18,"x_max":1293,"o":"m 18 947 l 626 947 l 626 920 l 568 920 q 488 903 508 920 q 469 859 469 886 q 502 792 469 840 q 603 657 536 745 l 750 454 l 981 762 q 997 795 993 783 q 1001 822 1000 808 q 957 898 1001 876 q 804 920 913 920 l 804 947 l 1293 947 l 1293 920 q 1154 881 1234 920 q 1005 749 1075 841 l 760 421 l 760 250 q 806 65 760 103 q 996 26 852 26 l 996 0 l 321 0 l 321 26 q 527 78 492 26 q 562 252 562 129 l 562 401 l 256 817 q 176 888 228 857 q 18 920 124 920 l 18 947 z "},"Z":{"ha":1141,"x_min":102,"x_max":1039,"o":"m 173 947 l 1009 947 l 1009 920 l 335 26 l 596 26 q 861 113 772 26 q 1011 393 949 199 l 1039 393 l 1039 0 l 102 0 l 102 26 l 780 920 l 603 920 q 325 832 406 920 q 199 602 244 744 l 173 602 l 173 947 z "},"z":{"ha":1141,"x_min":102,"x_max":1039,"o":"m 173 947 l 1009 947 l 1009 920 l 335 26 l 596 26 q 861 113 772 26 q 1011 393 949 199 l 1039 393 l 1039 0 l 102 0 l 102 26 l 780 920 l 603 920 q 325 832 406 920 q 199 602 244 744 l 173 602 l 173 947 z "},"А":{"ha":1190,"x_min":18,"x_max":1173,"o":"m 328 321 l 699 321 l 513 739 l 328 321 m 580 965 l 610 965 l 1006 106 q 1078 42 1033 57 q 1173 26 1122 26 l 1173 0 l 621 0 l 621 26 q 767 42 739 26 q 796 90 796 57 q 713 296 795 124 l 318 296 l 277 203 q 270 148 270 186 q 314 56 276 85 q 406 26 353 26 l 406 0 l 18 0 l 18 26 q 307 347 183 26 l 580 965 z "},"а":{"ha":1190,"x_min":18,"x_max":1173,"o":"m 328 321 l 699 321 l 513 739 l 328 321 m 580 965 l 610 965 l 1006 106 q 1078 42 1033 57 q 1173 26 1122 26 l 1173 0 l 621 0 l 621 26 q 767 42 739 26 q 796 90 796 57 q 713 296 795 124 l 318 296 l 277 203 q 270 148 270 186 q 314 56 276 85 q 406 26 353 26 l 406 0 l 18 0 l 18 26 q 307 347 183 26 l 580 965 z "},"Б":{"ha":1294,"x_min":102,"x_max":1206,"o":"m 502 509 l 722 509 q 1088 429 971 503 q 1206 241 1206 355 q 1086 61 1206 122 q 821 0 966 0 l 102 0 l 102 26 q 262 73 224 26 q 300 218 300 119 l 300 728 q 262 874 300 828 q 102 920 224 920 l 102 947 l 1113 947 l 1113 578 l 1090 578 q 937 858 1030 793 q 622 922 844 922 l 502 922 l 502 509 m 502 26 l 703 26 q 900 85 827 26 q 972 259 972 145 q 893 423 972 365 q 661 481 814 481 l 502 481 l 502 26 z "},"б":{"ha":1294,"x_min":102,"x_max":1206,"o":"m 502 509 l 722 509 q 1088 429 971 503 q 1206 241 1206 355 q 1086 61 1206 122 q 821 0 966 0 l 102 0 l 102 26 q 262 73 224 26 q 300 218 300 119 l 300 728 q 262 874 300 828 q 102 920 224 920 l 102 947 l 1113 947 l 1113 578 l 1090 578 q 937 858 1030 793 q 622 922 844 922 l 502 922 l 502 509 m 502 26 l 703 26 q 900 85 827 26 q 972 259 972 145 q 893 423 972 365 q 661 481 814 481 l 502 481 l 502 26 z "},"В":{"ha":1328,"x_min":102,"x_max":1226,"o":"m 502 481 l 502 26 l 710 26 q 920 85 848 26 q 993 259 993 145 q 914 423 993 365 q 668 481 835 481 l 502 481 m 502 924 l 502 509 l 675 509 q 905 573 849 509 q 960 727 960 636 q 911 871 960 819 q 711 924 862 924 l 502 924 m 828 947 q 1091 879 1000 947 q 1183 715 1183 812 q 1070 562 1183 620 q 885 497 958 505 q 1133 410 1039 471 q 1226 241 1226 349 q 1106 61 1226 122 q 842 0 987 0 l 102 0 l 102 26 q 262 73 224 26 q 300 218 300 119 l 300 728 q 262 874 300 828 q 102 920 224 920 l 102 947 l 828 947 z "},"в":{"ha":1328,"x_min":102,"x_max":1226,"o":"m 502 481 l 502 26 l 710 26 q 920 85 848 26 q 993 259 993 145 q 914 423 993 365 q 668 481 835 481 l 502 481 m 502 924 l 502 509 l 675 509 q 905 573 849 509 q 960 727 960 636 q 911 871 960 819 q 711 924 862 924 l 502 924 m 828 947 q 1091 879 1000 947 q 1183 715 1183 812 q 1070 562 1183 620 q 885 497 958 505 q 1133 410 1039 471 q 1226 241 1226 349 q 1106 61 1226 122 q 842 0 987 0 l 102 0 l 102 26 q 262 73 224 26 q 300 218 300 119 l 300 728 q 262 874 300 828 q 102 920 224 920 l 102 947 l 828 947 z "},"Г":{"ha":1139,"x_min":102,"x_max":1071,"o":"m 102 0 l 102 26 q 262 73 224 26 q 300 218 300 119 l 300 728 q 262 874 300 828 q 102 920 224 920 l 102 947 l 1071 947 l 1071 537 l 1045 537 q 902 844 998 766 q 580 922 807 922 l 497 922 l 497 218 q 534 73 497 119 q 731 26 572 26 l 768 26 l 768 0 l 102 0 z "},"г":{"ha":1139,"x_min":102,"x_max":1071,"o":"m 102 0 l 102 26 q 262 73 224 26 q 300 218 300 119 l 300 728 q 262 874 300 828 q 102 920 224 920 l 102 947 l 1071 947 l 1071 537 l 1045 537 q 902 844 998 766 q 580 922 807 922 l 497 922 l 497 218 q 534 73 497 119 q 731 26 572 26 l 768 26 l 768 0 l 102 0 z "},"Д":{"ha":1310,"x_min":27,"x_max":1242,"o":"m 183 25 q 281 157 229 54 q 492 764 334 259 q 499 794 498 786 q 500 814 500 803 q 451 886 499 852 q 315 920 403 920 l 315 947 l 1187 947 l 1187 920 q 1027 874 1065 920 q 989 728 989 828 l 989 25 l 1242 25 l 1154 -357 l 1131 -357 q 1052 -44 1105 -87 q 947 0 1000 0 l 321 0 q 217 -44 269 0 q 138 -357 164 -87 l 115 -357 l 27 25 l 183 25 m 789 25 l 789 920 q 595 877 640 920 q 516 735 551 833 q 311 152 357 246 q 231 25 265 58 l 789 25 z "},"д":{"ha":1310,"x_min":27,"x_max":1242,"o":"m 183 25 q 281 157 229 54 q 492 764 334 259 q 499 794 498 786 q 500 814 500 803 q 451 886 499 852 q 315 920 403 920 l 315 947 l 1187 947 l 1187 920 q 1027 874 1065 920 q 989 728 989 828 l 989 25 l 1242 25 l 1154 -357 l 1131 -357 q 1052 -44 1105 -87 q 947 0 1000 0 l 321 0 q 217 -44 269 0 q 138 -357 164 -87 l 115 -357 l 27 25 l 183 25 m 789 25 l 789 920 q 595 877 640 920 q 516 735 551 833 q 311 152 357 246 q 231 25 265 58 l 789 25 z "},"Е":{"ha":1238,"x_min":102,"x_max":1137,"o":"m 500 449 l 500 26 l 592 26 q 976 128 876 26 q 1109 391 1077 231 l 1137 391 l 1137 0 l 102 0 l 102 26 q 262 73 224 26 q 300 218 300 119 l 300 728 q 262 874 300 828 q 102 920 224 920 l 102 947 l 1112 947 l 1112 578 l 1088 578 q 936 858 1029 793 q 621 922 842 922 l 500 922 l 500 475 q 708 546 636 475 q 792 773 780 617 l 817 773 l 817 151 l 792 151 q 708 378 780 307 q 500 449 636 449 z "},"е":{"ha":1238,"x_min":102,"x_max":1137,"o":"m 500 449 l 500 26 l 592 26 q 976 128 876 26 q 1109 391 1077 231 l 1137 391 l 1137 0 l 102 0 l 102 26 q 262 73 224 26 q 300 218 300 119 l 300 728 q 262 874 300 828 q 102 920 224 920 l 102 947 l 1112 947 l 1112 578 l 1088 578 q 936 858 1029 793 q 621 922 842 922 l 500 922 l 500 475 q 708 546 636 475 q 792 773 780 617 l 817 773 l 817 151 l 792 151 q 708 378 780 307 q 500 449 636 449 z "},"Ж":{"ha":1742,"x_min":34,"x_max":1708,"o":"m 970 522 l 1061 522 q 1115 537 1086 522 q 1169 591 1144 551 q 1215 735 1198 650 q 1274 906 1232 843 q 1411 970 1316 970 q 1569 839 1569 960 q 1455 716 1567 720 q 1338 810 1346 716 q 1400 919 1338 901 q 1423 930 1423 924 q 1399 941 1423 940 q 1286 875 1318 938 q 1241 730 1255 812 q 1190 571 1221 625 q 1140 521 1163 534 q 1107 503 1118 508 q 1174 476 1118 490 q 1314 456 1230 462 l 1512 107 q 1595 41 1548 56 q 1708 26 1643 26 l 1708 0 l 1342 0 l 1074 494 l 970 494 l 970 218 q 1009 73 970 119 q 1169 26 1047 26 l 1169 0 l 572 0 l 572 26 q 733 73 694 26 q 771 218 771 119 l 771 494 l 667 494 l 399 0 l 34 0 l 34 26 q 146 41 99 26 q 229 107 194 56 l 427 456 q 568 476 512 462 q 635 503 624 490 q 601 521 624 508 q 551 571 578 534 q 500 730 521 625 q 455 875 487 812 q 342 941 423 938 q 318 930 318 940 q 341 919 318 924 q 404 810 404 901 q 287 716 395 716 q 172 839 175 720 q 330 970 172 960 q 468 906 425 970 q 527 735 510 843 q 572 591 544 650 q 627 537 597 551 q 681 522 656 522 l 771 522 l 771 728 q 733 874 771 828 q 572 920 694 920 l 572 947 l 1169 947 l 1169 920 q 1009 874 1047 920 q 970 728 970 828 l 970 522 z "},"ж":{"ha":1742,"x_min":34,"x_max":1708,"o":"m 970 522 l 1061 522 q 1115 537 1086 522 q 1169 591 1144 551 q 1215 735 1198 650 q 1274 906 1232 843 q 1411 970 1316 970 q 1569 839 1569 960 q 1455 716 1567 720 q 1338 810 1346 716 q 1400 919 1338 901 q 1423 930 1423 924 q 1399 941 1423 940 q 1286 875 1318 938 q 1241 730 1255 812 q 1190 571 1221 625 q 1140 521 1163 534 q 1107 503 1118 508 q 1174 476 1118 490 q 1314 456 1230 462 l 1512 107 q 1595 41 1548 56 q 1708 26 1643 26 l 1708 0 l 1342 0 l 1074 494 l 970 494 l 970 218 q 1009 73 970 119 q 1169 26 1047 26 l 1169 0 l 572 0 l 572 26 q 733 73 694 26 q 771 218 771 119 l 771 494 l 667 494 l 399 0 l 34 0 l 34 26 q 146 41 99 26 q 229 107 194 56 l 427 456 q 568 476 512 462 q 635 503 624 490 q 601 521 624 508 q 551 571 578 534 q 500 730 521 625 q 455 875 487 812 q 342 941 423 938 q 318 930 318 940 q 341 919 318 924 q 404 810 404 901 q 287 716 395 716 q 172 839 175 720 q 330 970 172 960 q 468 906 425 970 q 527 735 510 843 q 572 591 544 650 q 627 537 597 551 q 681 522 656 522 l 771 522 l 771 728 q 733 874 771 828 q 572 920 694 920 l 572 947 l 1169 947 l 1169 920 q 1009 874 1047 920 q 970 728 970 828 l 970 522 z "},"З":{"ha":977,"x_min":68,"x_max":895,"o":"m 313 919 q 352 944 313 919 q 500 969 392 969 q 771 900 678 969 q 864 724 864 830 q 773 577 857 633 q 581 510 688 521 q 801 434 707 496 q 895 259 895 371 q 780 64 895 141 q 435 -14 665 -14 q 151 70 235 -7 q 68 226 68 146 q 102 321 68 290 q 181 353 137 353 q 274 321 249 353 q 299 242 299 290 q 274 172 299 193 q 218 143 249 151 q 209 124 212 131 q 207 109 207 117 q 261 43 207 65 q 424 14 315 21 q 626 75 578 14 q 673 222 673 136 q 619 434 673 378 q 469 490 564 490 q 369 487 405 490 q 317 484 333 484 q 286 490 292 484 q 280 509 280 497 q 287 528 280 522 q 315 534 294 534 q 363 530 329 534 q 451 526 397 526 q 602 566 555 526 q 656 720 649 607 q 611 893 656 844 q 496 941 566 941 q 274 858 372 941 q 138 621 176 774 l 111 621 l 124 945 l 152 945 q 201 868 159 868 q 313 919 233 868 z "},"з":{"ha":977,"x_min":68,"x_max":895,"o":"m 313 919 q 352 944 313 919 q 500 969 392 969 q 771 900 678 969 q 864 724 864 830 q 773 577 857 633 q 581 510 688 521 q 801 434 707 496 q 895 259 895 371 q 780 64 895 141 q 435 -14 665 -14 q 151 70 235 -7 q 68 226 68 146 q 102 321 68 290 q 181 353 137 353 q 274 321 249 353 q 299 242 299 290 q 274 172 299 193 q 218 143 249 151 q 209 124 212 131 q 207 109 207 117 q 261 43 207 65 q 424 14 315 21 q 626 75 578 14 q 673 222 673 136 q 619 434 673 378 q 469 490 564 490 q 369 487 405 490 q 317 484 333 484 q 286 490 292 484 q 280 509 280 497 q 287 528 280 522 q 315 534 294 534 q 363 530 329 534 q 451 526 397 526 q 602 566 555 526 q 656 720 649 607 q 611 893 656 844 q 496 941 566 941 q 274 858 372 941 q 138 621 176 774 l 111 621 l 124 945 l 152 945 q 201 868 159 868 q 313 919 233 868 z "},"И":{"ha":1510,"x_min":102,"x_max":1409,"o":"m 513 119 q 538 73 522 92 q 699 26 576 26 l 699 0 l 102 0 l 102 26 q 262 73 224 26 q 300 218 300 119 l 300 728 q 262 874 300 828 q 102 920 224 920 l 102 947 l 699 947 l 699 920 q 538 874 576 920 q 500 728 500 828 l 500 218 q 505 155 500 183 l 1002 813 q 972 874 991 850 q 812 920 934 920 l 812 947 l 1409 947 l 1409 920 q 1248 874 1286 920 q 1210 728 1210 828 l 1210 218 q 1248 73 1210 119 q 1409 26 1286 26 l 1409 0 l 812 0 l 812 26 q 972 73 934 26 q 1010 218 1010 119 l 1010 728 q 1008 777 1010 754 l 513 119 z "},"и":{"ha":1510,"x_min":102,"x_max":1409,"o":"m 513 119 q 538 73 522 92 q 699 26 576 26 l 699 0 l 102 0 l 102 26 q 262 73 224 26 q 300 218 300 119 l 300 728 q 262 874 300 828 q 102 920 224 920 l 102 947 l 699 947 l 699 920 q 538 874 576 920 q 500 728 500 828 l 500 218 q 505 155 500 183 l 1002 813 q 972 874 991 850 q 812 920 934 920 l 812 947 l 1409 947 l 1409 920 q 1248 874 1286 920 q 1210 728 1210 828 l 1210 218 q 1248 73 1210 119 q 1409 26 1286 26 l 1409 0 l 812 0 l 812 26 q 972 73 934 26 q 1010 218 1010 119 l 1010 728 q 1008 777 1010 754 l 513 119 z "},"Й":{"ha":1510,"x_min":102,"x_max":1409,"o":"m 513 119 q 538 73 522 92 q 699 26 576 26 l 699 0 l 102 0 l 102 26 q 262 73 224 26 q 300 218 300 119 l 300 728 q 262 874 300 828 q 102 920 224 920 l 102 947 l 699 947 l 699 920 q 538 874 576 920 q 500 728 500 828 l 500 218 q 505 155 500 183 l 1002 813 q 972 874 991 850 q 812 920 934 920 l 812 947 l 1409 947 l 1409 920 q 1248 874 1286 920 q 1210 728 1210 828 l 1210 218 q 1248 73 1210 119 q 1409 26 1286 26 l 1409 0 l 812 0 l 812 26 q 972 73 934 26 q 1010 218 1010 119 l 1010 728 q 1008 777 1010 754 l 513 119 m 755 1013 q 505 1078 593 1013 q 410 1222 416 1143 q 445 1317 410 1288 q 529 1347 479 1347 q 620 1313 595 1346 q 646 1230 645 1280 q 565 1126 646 1156 q 535 1107 535 1117 q 589 1065 542 1086 q 755 1040 636 1044 q 921 1065 873 1044 q 975 1107 968 1086 q 945 1126 975 1117 q 863 1230 863 1156 q 890 1313 865 1280 q 981 1347 915 1346 q 1065 1317 1031 1347 q 1099 1222 1099 1288 q 1005 1078 1093 1143 q 755 1013 917 1013 z "},"й":{"ha":1510,"x_min":102,"x_max":1409,"o":"m 513 119 q 538 73 522 92 q 699 26 576 26 l 699 0 l 102 0 l 102 26 q 262 73 224 26 q 300 218 300 119 l 300 728 q 262 874 300 828 q 102 920 224 920 l 102 947 l 699 947 l 699 920 q 538 874 576 920 q 500 728 500 828 l 500 218 q 505 155 500 183 l 1002 813 q 972 874 991 850 q 812 920 934 920 l 812 947 l 1409 947 l 1409 920 q 1248 874 1286 920 q 1210 728 1210 828 l 1210 218 q 1248 73 1210 119 q 1409 26 1286 26 l 1409 0 l 812 0 l 812 26 q 972 73 934 26 q 1010 218 1010 119 l 1010 728 q 1008 777 1010 754 l 513 119 m 755 1013 q 505 1078 593 1013 q 410 1222 416 1143 q 445 1317 410 1288 q 529 1347 479 1347 q 620 1313 595 1346 q 646 1230 645 1280 q 565 1126 646 1156 q 535 1107 535 1117 q 589 1065 542 1086 q 755 1040 636 1044 q 921 1065 873 1044 q 975 1107 968 1086 q 945 1126 975 1117 q 863 1230 863 1156 q 890 1313 865 1280 q 981 1347 915 1346 q 1065 1317 1031 1347 q 1099 1222 1099 1288 q 1005 1078 1093 1143 q 755 1013 917 1013 z "},"К":{"ha":1325,"x_min":102,"x_max":1291,"o":"m 658 494 l 500 494 l 500 239 q 538 83 500 139 q 699 26 576 26 l 699 0 l 102 0 l 102 26 q 262 73 224 26 q 300 218 300 119 l 300 728 q 262 874 300 828 q 102 920 224 920 l 102 947 l 699 947 l 699 920 q 538 874 576 920 q 500 728 500 828 l 500 522 l 644 522 q 699 537 669 522 q 753 591 728 551 q 798 735 781 650 q 858 906 815 843 q 995 970 900 970 q 1153 839 1153 960 q 1038 716 1150 720 q 922 810 930 716 q 984 919 922 901 q 1007 930 1007 924 q 983 941 1007 940 q 870 875 902 938 q 825 730 838 812 q 774 571 804 625 q 724 521 747 534 q 690 503 701 508 q 757 476 701 490 q 898 456 813 462 l 1096 107 q 1179 41 1131 56 q 1291 26 1226 26 l 1291 0 l 926 0 l 658 494 z "},"к":{"ha":1325,"x_min":102,"x_max":1291,"o":"m 658 494 l 500 494 l 500 239 q 538 83 500 139 q 699 26 576 26 l 699 0 l 102 0 l 102 26 q 262 73 224 26 q 300 218 300 119 l 300 728 q 262 874 300 828 q 102 920 224 920 l 102 947 l 699 947 l 699 920 q 538 874 576 920 q 500 728 500 828 l 500 522 l 644 522 q 699 537 669 522 q 753 591 728 551 q 798 735 781 650 q 858 906 815 843 q 995 970 900 970 q 1153 839 1153 960 q 1038 716 1150 720 q 922 810 930 716 q 984 919 922 901 q 1007 930 1007 924 q 983 941 1007 940 q 870 875 902 938 q 825 730 838 812 q 774 571 804 625 q 724 521 747 534 q 690 503 701 508 q 757 476 701 490 q 898 456 813 462 l 1096 107 q 1179 41 1131 56 q 1291 26 1226 26 l 1291 0 l 926 0 l 658 494 z "},"Л":{"ha":1360,"x_min":0,"x_max":1258,"o":"m 341 136 q 373 198 341 136 q 562 764 404 259 q 570 794 568 786 q 571 814 571 803 q 522 886 570 852 q 385 920 473 920 l 385 947 l 1258 947 l 1258 920 q 1098 874 1136 920 q 1059 728 1059 828 l 1059 218 q 1098 73 1059 119 q 1258 26 1136 26 l 1258 0 l 661 0 l 661 26 q 822 73 783 26 q 860 218 860 119 l 860 920 q 666 877 711 920 q 587 735 621 833 q 362 112 427 246 q 186 -22 298 -22 q 47 20 94 -22 q 0 130 1 61 q 33 225 2 193 q 123 256 63 256 q 219 220 189 256 q 250 125 250 184 q 230 63 249 82 q 189 35 211 44 q 184 25 184 33 q 193 13 184 17 q 208 9 201 9 q 341 136 279 14 z "},"л":{"ha":1360,"x_min":0,"x_max":1258,"o":"m 341 136 q 373 198 341 136 q 562 764 404 259 q 570 794 568 786 q 571 814 571 803 q 522 886 570 852 q 385 920 473 920 l 385 947 l 1258 947 l 1258 920 q 1098 874 1136 920 q 1059 728 1059 828 l 1059 218 q 1098 73 1059 119 q 1258 26 1136 26 l 1258 0 l 661 0 l 661 26 q 822 73 783 26 q 860 218 860 119 l 860 920 q 666 877 711 920 q 587 735 621 833 q 362 112 427 246 q 186 -22 298 -22 q 47 20 94 -22 q 0 130 1 61 q 33 225 2 193 q 123 256 63 256 q 219 220 189 256 q 250 125 250 184 q 230 63 249 82 q 189 35 211 44 q 184 25 184 33 q 193 13 184 17 q 208 9 201 9 q 341 136 279 14 z "},"М":{"ha":1600,"x_min":51,"x_max":1529,"o":"m 446 947 l 804 224 l 1155 947 l 1529 947 l 1529 920 q 1362 874 1400 920 q 1324 728 1324 828 l 1324 218 q 1362 73 1324 119 q 1529 26 1400 26 l 1529 0 l 920 0 l 920 26 q 1094 73 1055 26 q 1132 218 1132 119 l 1132 840 l 724 0 l 696 0 l 284 842 l 284 259 q 333 93 284 159 q 490 26 381 26 l 490 0 l 51 0 l 51 26 q 208 86 159 26 q 256 245 256 146 l 256 728 q 218 874 256 828 q 51 920 180 920 l 51 947 l 446 947 z "},"м":{"ha":1600,"x_min":51,"x_max":1529,"o":"m 446 947 l 804 224 l 1155 947 l 1529 947 l 1529 920 q 1362 874 1400 920 q 1324 728 1324 828 l 1324 218 q 1362 73 1324 119 q 1529 26 1400 26 l 1529 0 l 920 0 l 920 26 q 1094 73 1055 26 q 1132 218 1132 119 l 1132 840 l 724 0 l 696 0 l 284 842 l 284 259 q 333 93 284 159 q 490 26 381 26 l 490 0 l 51 0 l 51 26 q 208 86 159 26 q 256 245 256 146 l 256 728 q 218 874 256 828 q 51 920 180 920 l 51 947 l 446 947 z "},"Н":{"ha":1510,"x_min":102,"x_max":1409,"o":"m 500 467 l 500 218 q 538 73 500 119 q 699 26 576 26 l 699 0 l 102 0 l 102 26 q 262 73 224 26 q 300 218 300 119 l 300 728 q 262 874 300 828 q 102 920 224 920 l 102 947 l 699 947 l 699 920 q 538 874 576 920 q 500 728 500 828 l 500 495 l 1010 495 l 1010 728 q 972 874 1010 828 q 812 920 934 920 l 812 947 l 1409 947 l 1409 920 q 1248 874 1286 920 q 1210 728 1210 828 l 1210 218 q 1248 73 1210 119 q 1409 26 1286 26 l 1409 0 l 812 0 l 812 26 q 972 73 934 26 q 1010 218 1010 119 l 1010 467 l 500 467 z "},"н":{"ha":1510,"x_min":102,"x_max":1409,"o":"m 500 467 l 500 218 q 538 73 500 119 q 699 26 576 26 l 699 0 l 102 0 l 102 26 q 262 73 224 26 q 300 218 300 119 l 300 728 q 262 874 300 828 q 102 920 224 920 l 102 947 l 699 947 l 699 920 q 538 874 576 920 q 500 728 500 828 l 500 495 l 1010 495 l 1010 728 q 972 874 1010 828 q 812 920 934 920 l 812 947 l 1409 947 l 1409 920 q 1248 874 1286 920 q 1210 728 1210 828 l 1210 218 q 1248 73 1210 119 q 1409 26 1286 26 l 1409 0 l 812 0 l 812 26 q 972 73 934 26 q 1010 218 1010 119 l 1010 467 l 500 467 z "},"О":{"ha":1274,"x_min":68,"x_max":1206,"o":"m 637 966 q 1046 819 886 966 q 1206 474 1206 671 q 1043 126 1206 271 q 637 -18 880 -18 q 235 126 401 -18 q 68 474 68 271 q 231 822 68 678 q 637 966 395 966 m 640 939 q 401 809 490 939 q 313 474 313 680 q 405 139 313 269 q 640 10 497 10 q 877 139 788 10 q 966 474 966 269 q 873 809 966 680 q 640 939 781 939 z "},"о":{"ha":1274,"x_min":68,"x_max":1206,"o":"m 637 966 q 1046 819 886 966 q 1206 474 1206 671 q 1043 126 1206 271 q 637 -18 880 -18 q 235 126 401 -18 q 68 474 68 271 q 231 822 68 678 q 637 966 395 966 m 640 939 q 401 809 490 939 q 313 474 313 680 q 405 139 313 269 q 640 10 497 10 q 877 139 788 10 q 966 474 966 269 q 873 809 966 680 q 640 939 781 939 z "},"П":{"ha":1453,"x_min":75,"x_max":1382,"o":"m 473 920 l 473 218 q 512 73 473 119 q 672 26 550 26 l 672 0 l 75 0 l 75 26 q 236 73 197 26 q 274 218 274 119 l 274 728 q 236 874 274 828 q 75 920 197 920 l 75 947 l 1382 947 l 1382 920 q 1222 874 1260 920 q 1183 728 1183 828 l 1183 218 q 1222 73 1183 119 q 1382 26 1260 26 l 1382 0 l 785 0 l 785 26 q 946 73 907 26 q 984 218 984 119 l 984 920 l 473 920 z "},"п":{"ha":1453,"x_min":75,"x_max":1382,"o":"m 473 920 l 473 218 q 512 73 473 119 q 672 26 550 26 l 672 0 l 75 0 l 75 26 q 236 73 197 26 q 274 218 274 119 l 274 728 q 236 874 274 828 q 75 920 197 920 l 75 947 l 1382 947 l 1382 920 q 1222 874 1260 920 q 1183 728 1183 828 l 1183 218 q 1222 73 1183 119 q 1382 26 1260 26 l 1382 0 l 785 0 l 785 26 q 946 73 907 26 q 984 218 984 119 l 984 920 l 473 920 z "},"Р":{"ha":1194,"x_min":77,"x_max":1160,"o":"m 473 922 l 473 452 l 625 452 q 878 518 820 452 q 936 669 936 585 l 936 706 q 874 863 936 804 q 649 922 812 922 l 473 922 m 473 424 l 473 218 q 510 73 473 119 q 707 28 547 28 l 707 0 l 77 0 l 77 26 q 238 73 199 26 q 276 218 276 119 l 276 728 q 238 874 276 828 q 77 920 199 920 l 77 947 l 703 947 q 1056 875 951 947 q 1160 701 1160 804 l 1160 671 q 1047 490 1160 557 q 783 424 935 424 l 473 424 z "},"р":{"ha":1194,"x_min":77,"x_max":1160,"o":"m 473 922 l 473 452 l 625 452 q 878 518 820 452 q 936 669 936 585 l 936 706 q 874 863 936 804 q 649 922 812 922 l 473 922 m 473 424 l 473 218 q 510 73 473 119 q 707 28 547 28 l 707 0 l 77 0 l 77 26 q 238 73 199 26 q 276 218 276 119 l 276 728 q 238 874 276 828 q 77 920 199 920 l 77 947 l 703 947 q 1056 875 951 947 q 1160 701 1160 804 l 1160 671 q 1047 490 1160 557 q 783 424 935 424 l 473 424 z "},"С":{"ha":1126,"x_min":68,"x_max":1072,"o":"m 556 968 q 790 911 709 968 q 895 853 870 853 q 1015 953 939 853 l 1040 953 l 1059 499 l 1038 499 q 841 838 966 732 q 581 943 717 943 q 373 821 434 943 q 313 467 313 699 q 400 102 313 195 q 621 10 487 10 q 903 110 794 10 q 1044 337 1012 210 l 1072 337 q 926 93 1043 204 q 609 -18 810 -18 q 225 135 382 -18 q 68 478 68 287 q 220 822 68 675 q 556 968 372 968 z "},"с":{"ha":1126,"x_min":68,"x_max":1072,"o":"m 556 968 q 790 911 709 968 q 895 853 870 853 q 1015 953 939 853 l 1040 953 l 1059 499 l 1038 499 q 841 838 966 732 q 581 943 717 943 q 373 821 434 943 q 313 467 313 699 q 400 102 313 195 q 621 10 487 10 q 903 110 794 10 q 1044 337 1012 210 l 1072 337 q 926 93 1043 204 q 609 -18 810 -18 q 225 135 382 -18 q 68 478 68 287 q 220 822 68 675 q 556 968 372 968 z "},"Т":{"ha":1278,"x_min":81,"x_max":1196,"o":"m 739 218 q 777 73 739 119 q 937 26 815 26 l 1053 26 l 1053 0 l 224 0 l 224 26 l 340 26 q 501 73 463 26 q 539 218 539 119 l 539 922 l 495 922 q 217 779 315 922 q 106 465 118 637 l 81 465 l 81 947 l 1196 947 l 1196 465 l 1171 465 q 1061 779 1160 637 q 783 922 962 922 l 739 922 l 739 218 z "},"т":{"ha":1278,"x_min":81,"x_max":1196,"o":"m 739 218 q 777 73 739 119 q 937 26 815 26 l 1053 26 l 1053 0 l 224 0 l 224 26 l 340 26 q 501 73 463 26 q 539 218 539 119 l 539 922 l 495 922 q 217 779 315 922 q 106 465 118 637 l 81 465 l 81 947 l 1196 947 l 1196 465 l 1171 465 q 1061 779 1160 637 q 783 922 962 922 l 739 922 l 739 218 z "},"У":{"ha":1186,"x_min":34,"x_max":1186,"o":"m 671 185 l 248 795 q 154 886 207 852 q 34 920 101 920 l 34 947 l 610 947 l 610 920 q 484 904 517 920 q 450 861 452 888 q 466 803 450 833 q 515 733 483 774 l 766 391 l 929 734 q 941 801 941 754 q 897 889 941 857 q 804 920 852 920 l 804 947 l 1186 947 l 1186 920 q 1057 863 1117 920 q 962 730 998 805 l 694 151 q 609 18 652 58 q 496 -22 567 -22 q 364 16 404 -22 q 323 117 324 54 q 353 208 326 173 q 433 243 380 243 q 523 210 492 243 q 553 125 553 177 q 533 63 552 82 q 492 35 514 44 q 488 25 488 33 q 496 13 488 17 q 518 9 505 9 q 590 46 555 14 q 671 185 625 78 z "},"у":{"ha":1186,"x_min":34,"x_max":1186,"o":"m 671 185 l 248 795 q 154 886 207 852 q 34 920 101 920 l 34 947 l 610 947 l 610 920 q 484 904 517 920 q 450 861 452 888 q 466 803 450 833 q 515 733 483 774 l 766 391 l 929 734 q 941 801 941 754 q 897 889 941 857 q 804 920 852 920 l 804 947 l 1186 947 l 1186 920 q 1057 863 1117 920 q 962 730 998 805 l 694 151 q 609 18 652 58 q 496 -22 567 -22 q 364 16 404 -22 q 323 117 324 54 q 353 208 326 173 q 433 243 380 243 q 523 210 492 243 q 553 125 553 177 q 533 63 552 82 q 492 35 514 44 q 488 25 488 33 q 496 13 488 17 q 518 9 505 9 q 590 46 555 14 q 671 185 625 78 z "},"Ф":{"ha":1373,"x_min":47,"x_max":1325,"o":"m 788 178 q 825 73 794 109 q 1005 26 863 26 l 1005 0 l 368 0 l 368 26 q 549 73 510 26 q 585 178 578 109 l 439 178 q 167 261 287 178 q 47 466 47 345 l 47 496 q 159 693 47 605 q 491 782 271 782 l 583 782 q 549 874 576 842 q 368 920 510 920 l 368 947 l 1005 947 l 1005 920 q 825 874 863 920 q 789 782 797 842 l 882 782 q 1214 693 1102 782 q 1325 496 1325 605 l 1325 466 q 1205 261 1325 345 q 934 178 1086 178 l 788 178 m 587 205 l 587 728 q 586 757 587 743 l 515 757 q 330 681 395 757 q 265 500 265 606 l 265 463 q 330 279 265 353 q 515 205 395 205 l 587 205 m 786 205 l 857 205 q 1043 279 978 205 q 1107 463 1107 353 l 1107 500 q 1043 681 1107 606 q 857 757 978 757 l 787 757 q 786 728 786 743 l 786 205 z "},"ф":{"ha":1373,"x_min":47,"x_max":1325,"o":"m 788 178 q 825 73 794 109 q 1005 26 863 26 l 1005 0 l 368 0 l 368 26 q 549 73 510 26 q 585 178 578 109 l 439 178 q 167 261 287 178 q 47 466 47 345 l 47 496 q 159 693 47 605 q 491 782 271 782 l 583 782 q 549 874 576 842 q 368 920 510 920 l 368 947 l 1005 947 l 1005 920 q 825 874 863 920 q 789 782 797 842 l 882 782 q 1214 693 1102 782 q 1325 496 1325 605 l 1325 466 q 1205 261 1325 345 q 934 178 1086 178 l 788 178 m 587 205 l 587 728 q 586 757 587 743 l 515 757 q 330 681 395 757 q 265 500 265 606 l 265 463 q 330 279 265 353 q 515 205 395 205 l 587 205 m 786 205 l 857 205 q 1043 279 978 205 q 1107 463 1107 353 l 1107 500 q 1043 681 1107 606 q 857 757 978 757 l 787 757 q 786 728 786 743 l 786 205 z "},"Х":{"ha":1409,"x_min":47,"x_max":1362,"o":"m 47 947 l 665 947 l 665 920 q 570 902 599 920 q 541 861 541 884 q 635 715 541 817 l 767 565 l 926 725 q 961 783 954 760 q 968 826 968 806 q 928 891 968 863 q 813 920 887 920 l 813 947 l 1325 947 l 1325 920 q 1189 881 1287 920 q 998 757 1090 842 l 785 542 l 1128 144 q 1250 52 1190 77 q 1362 26 1310 26 l 1362 0 l 730 0 l 730 26 q 869 42 833 26 q 906 85 906 58 q 893 129 906 108 q 852 178 880 150 l 654 410 l 465 210 q 442 173 450 192 q 434 125 434 154 q 493 47 434 67 q 614 26 551 26 l 614 0 l 47 0 l 47 26 q 262 99 142 26 q 475 264 381 171 l 637 431 l 387 718 q 174 903 248 886 q 47 920 100 920 l 47 947 z "},"х":{"ha":1409,"x_min":47,"x_max":1362,"o":"m 47 947 l 665 947 l 665 920 q 570 902 599 920 q 541 861 541 884 q 635 715 541 817 l 767 565 l 926 725 q 961 783 954 760 q 968 826 968 806 q 928 891 968 863 q 813 920 887 920 l 813 947 l 1325 947 l 1325 920 q 1189 881 1287 920 q 998 757 1090 842 l 785 542 l 1128 144 q 1250 52 1190 77 q 1362 26 1310 26 l 1362 0 l 730 0 l 730 26 q 869 42 833 26 q 906 85 906 58 q 893 129 906 108 q 852 178 880 150 l 654 410 l 465 210 q 442 173 450 192 q 434 125 434 154 q 493 47 434 67 q 614 26 551 26 l 614 0 l 47 0 l 47 26 q 262 99 142 26 q 475 264 381 171 l 637 431 l 387 718 q 174 903 248 886 q 47 920 100 920 l 47 947 z "},"Ц":{"ha":1453,"x_min":75,"x_max":1382,"o":"m 1353 0 l 75 0 l 75 26 q 236 73 197 26 q 274 218 274 119 l 274 728 q 236 874 274 828 q 75 920 197 920 l 75 947 l 672 947 l 672 920 q 512 874 550 920 q 473 728 473 828 l 473 26 l 984 26 l 984 728 q 946 874 984 828 q 785 920 907 920 l 785 947 l 1382 947 l 1382 920 q 1222 874 1260 920 q 1183 728 1183 828 l 1183 218 q 1222 73 1183 119 q 1382 26 1260 26 l 1382 0 l 1379 0 q 1280 -293 1373 -199 q 1055 -394 1186 -387 q 797 -329 937 -394 q 536 -264 657 -264 q 388 -301 444 -264 q 278 -430 331 -338 l 256 -408 q 405 -171 311 -245 q 581 -97 498 -97 q 831 -176 688 -97 q 1115 -256 973 -256 q 1292 -191 1240 -256 q 1353 0 1343 -127 z "},"ц":{"ha":1453,"x_min":75,"x_max":1382,"o":"m 1353 0 l 75 0 l 75 26 q 236 73 197 26 q 274 218 274 119 l 274 728 q 236 874 274 828 q 75 920 197 920 l 75 947 l 672 947 l 672 920 q 512 874 550 920 q 473 728 473 828 l 473 26 l 984 26 l 984 728 q 946 874 984 828 q 785 920 907 920 l 785 947 l 1382 947 l 1382 920 q 1222 874 1260 920 q 1183 728 1183 828 l 1183 218 q 1222 73 1183 119 q 1382 26 1260 26 l 1382 0 l 1379 0 q 1280 -293 1373 -199 q 1055 -394 1186 -387 q 797 -329 937 -394 q 536 -264 657 -264 q 388 -301 444 -264 q 278 -430 331 -338 l 256 -408 q 405 -171 311 -245 q 581 -97 498 -97 q 831 -176 688 -97 q 1115 -256 973 -256 q 1292 -191 1240 -256 q 1353 0 1343 -127 z "},"Ч":{"ha":1411,"x_min":54,"x_max":1341,"o":"m 554 393 q 336 454 418 393 q 253 612 253 515 l 253 728 q 215 874 253 828 q 54 920 176 920 l 54 947 l 658 947 l 658 920 q 491 874 529 920 q 452 728 452 828 l 452 591 q 506 465 452 509 q 674 420 559 420 l 943 420 l 943 728 q 904 874 943 828 q 737 920 866 920 l 737 947 l 1341 947 l 1341 920 q 1180 874 1219 920 q 1142 728 1142 828 l 1142 218 q 1180 73 1142 119 q 1341 26 1219 26 l 1341 0 l 622 0 l 622 26 q 904 73 866 26 q 943 218 943 119 l 943 393 l 554 393 z "},"ч":{"ha":1411,"x_min":54,"x_max":1341,"o":"m 554 393 q 336 454 418 393 q 253 612 253 515 l 253 728 q 215 874 253 828 q 54 920 176 920 l 54 947 l 658 947 l 658 920 q 491 874 529 920 q 452 728 452 828 l 452 591 q 506 465 452 509 q 674 420 559 420 l 943 420 l 943 728 q 904 874 943 828 q 737 920 866 920 l 737 947 l 1341 947 l 1341 920 q 1180 874 1219 920 q 1142 728 1142 828 l 1142 218 q 1180 73 1142 119 q 1341 26 1219 26 l 1341 0 l 622 0 l 622 26 q 904 73 866 26 q 943 218 943 119 l 943 393 l 554 393 z "},"Ш":{"ha":1990,"x_min":68,"x_max":1922,"o":"m 1095 26 l 1524 26 l 1524 728 q 1486 874 1524 828 q 1332 920 1447 920 l 1332 947 l 1922 947 l 1922 920 q 1762 874 1800 920 q 1723 728 1723 828 l 1723 218 q 1762 73 1723 119 q 1922 26 1800 26 l 1922 0 l 68 0 l 68 26 q 228 73 190 26 q 267 218 267 119 l 267 728 q 228 874 267 828 q 68 920 190 920 l 68 947 l 658 947 l 658 920 q 504 874 543 920 q 466 728 466 828 l 466 26 l 895 26 l 895 728 q 857 874 895 828 q 710 920 819 920 l 710 947 l 1280 947 l 1280 920 q 1133 874 1171 920 q 1095 728 1095 828 l 1095 26 z "},"ш":{"ha":1990,"x_min":68,"x_max":1922,"o":"m 1095 26 l 1524 26 l 1524 728 q 1486 874 1524 828 q 1332 920 1447 920 l 1332 947 l 1922 947 l 1922 920 q 1762 874 1800 920 q 1723 728 1723 828 l 1723 218 q 1762 73 1723 119 q 1922 26 1800 26 l 1922 0 l 68 0 l 68 26 q 228 73 190 26 q 267 218 267 119 l 267 728 q 228 874 267 828 q 68 920 190 920 l 68 947 l 658 947 l 658 920 q 504 874 543 920 q 466 728 466 828 l 466 26 l 895 26 l 895 728 q 857 874 895 828 q 710 920 819 920 l 710 947 l 1280 947 l 1280 920 q 1133 874 1171 920 q 1095 728 1095 828 l 1095 26 z "},"Щ":{"ha":1990,"x_min":68,"x_max":1922,"o":"m 1895 0 l 68 0 l 68 26 q 228 73 190 26 q 267 218 267 119 l 267 728 q 228 874 267 828 q 68 920 190 920 l 68 947 l 658 947 l 658 920 q 504 874 543 920 q 466 728 466 828 l 466 26 l 895 26 l 895 728 q 857 874 895 828 q 710 920 819 920 l 710 947 l 1280 947 l 1280 920 q 1133 874 1171 920 q 1095 728 1095 828 l 1095 26 l 1524 26 l 1524 728 q 1486 874 1524 828 q 1332 920 1447 920 l 1332 947 l 1922 947 l 1922 920 q 1762 874 1800 920 q 1723 728 1723 828 l 1723 218 q 1762 73 1723 119 q 1922 26 1800 26 l 1922 0 q 1775 -293 1916 -199 q 1408 -394 1634 -387 q 970 -329 1195 -394 q 604 -264 745 -264 q 408 -298 485 -264 q 278 -430 331 -331 l 256 -408 q 435 -171 311 -245 q 689 -97 559 -97 q 1072 -176 844 -97 q 1522 -256 1299 -256 q 1810 -191 1735 -256 q 1895 0 1886 -127 z "},"щ":{"ha":1990,"x_min":68,"x_max":1922,"o":"m 1895 0 l 68 0 l 68 26 q 228 73 190 26 q 267 218 267 119 l 267 728 q 228 874 267 828 q 68 920 190 920 l 68 947 l 658 947 l 658 920 q 504 874 543 920 q 466 728 466 828 l 466 26 l 895 26 l 895 728 q 857 874 895 828 q 710 920 819 920 l 710 947 l 1280 947 l 1280 920 q 1133 874 1171 920 q 1095 728 1095 828 l 1095 26 l 1524 26 l 1524 728 q 1486 874 1524 828 q 1332 920 1447 920 l 1332 947 l 1922 947 l 1922 920 q 1762 874 1800 920 q 1723 728 1723 828 l 1723 218 q 1762 73 1723 119 q 1922 26 1800 26 l 1922 0 q 1775 -293 1916 -199 q 1408 -394 1634 -387 q 970 -329 1195 -394 q 604 -264 745 -264 q 408 -298 485 -264 q 278 -430 331 -331 l 256 -408 q 435 -171 311 -245 q 689 -97 559 -97 q 1072 -176 844 -97 q 1522 -256 1299 -256 q 1810 -191 1735 -256 q 1895 0 1886 -127 z "},"Ъ":{"ha":1447,"x_min":81,"x_max":1379,"o":"m 868 25 q 1093 84 1031 25 q 1155 241 1155 142 l 1155 278 q 1097 428 1155 361 q 844 495 1039 495 l 692 495 l 692 25 l 868 25 m 926 947 l 926 919 q 729 873 766 919 q 692 728 692 828 l 692 523 l 1002 523 q 1266 456 1154 523 q 1379 275 1379 390 l 1379 245 q 1275 72 1379 143 q 922 0 1170 0 l 296 0 l 296 26 q 457 73 418 26 q 495 218 495 119 l 495 922 q 217 779 315 922 q 106 465 118 637 l 81 465 l 81 947 l 926 947 z "},"ъ":{"ha":1447,"x_min":81,"x_max":1379,"o":"m 868 25 q 1093 84 1031 25 q 1155 241 1155 142 l 1155 278 q 1097 428 1155 361 q 844 495 1039 495 l 692 495 l 692 25 l 868 25 m 926 947 l 926 919 q 729 873 766 919 q 692 728 692 828 l 692 523 l 1002 523 q 1266 456 1154 523 q 1379 275 1379 390 l 1379 245 q 1275 72 1379 143 q 922 0 1170 0 l 296 0 l 296 26 q 457 73 418 26 q 495 218 495 119 l 495 922 q 217 779 315 922 q 106 465 118 637 l 81 465 l 81 947 l 926 947 z "},"Ы":{"ha":1822,"x_min":68,"x_max":1740,"o":"m 640 25 q 864 84 802 25 q 926 241 926 142 l 926 278 q 868 428 926 361 q 615 495 810 495 l 463 495 l 463 25 l 640 25 m 773 523 q 1038 456 925 523 q 1151 275 1151 390 l 1151 245 q 1046 72 1151 143 q 694 0 941 0 l 68 0 l 68 26 q 228 73 190 26 q 267 218 267 119 l 267 728 q 228 874 267 828 q 68 920 190 920 l 68 947 l 697 947 l 697 919 q 500 873 538 919 q 463 728 463 828 l 463 523 l 773 523 m 1342 728 q 1304 874 1342 828 q 1143 920 1265 920 l 1143 947 l 1740 947 l 1740 920 q 1580 874 1618 920 q 1541 728 1541 828 l 1541 218 q 1580 73 1541 119 q 1740 26 1618 26 l 1740 0 l 1143 0 l 1143 26 q 1304 73 1265 26 q 1342 218 1342 119 l 1342 728 z "},"ы":{"ha":1822,"x_min":68,"x_max":1740,"o":"m 640 25 q 864 84 802 25 q 926 241 926 142 l 926 278 q 868 428 926 361 q 615 495 810 495 l 463 495 l 463 25 l 640 25 m 773 523 q 1038 456 925 523 q 1151 275 1151 390 l 1151 245 q 1046 72 1151 143 q 694 0 941 0 l 68 0 l 68 26 q 228 73 190 26 q 267 218 267 119 l 267 728 q 228 874 267 828 q 68 920 190 920 l 68 947 l 697 947 l 697 919 q 500 873 538 919 q 463 728 463 828 l 463 523 l 773 523 m 1342 728 q 1304 874 1342 828 q 1143 920 1265 920 l 1143 947 l 1740 947 l 1740 920 q 1580 874 1618 920 q 1541 728 1541 828 l 1541 218 q 1580 73 1541 119 q 1740 26 1618 26 l 1740 0 l 1143 0 l 1143 26 q 1304 73 1265 26 q 1342 218 1342 119 l 1342 728 z "},"Ь":{"ha":1228,"x_min":77,"x_max":1160,"o":"m 649 25 q 874 84 812 25 q 936 241 936 142 l 936 278 q 878 428 936 361 q 625 495 820 495 l 473 495 l 473 25 l 649 25 m 783 523 q 1047 456 935 523 q 1160 275 1160 390 l 1160 245 q 1056 72 1160 143 q 703 0 951 0 l 77 0 l 77 26 q 238 73 199 26 q 276 218 276 119 l 276 728 q 238 874 276 828 q 77 920 199 920 l 77 947 l 707 947 l 707 919 q 510 873 547 919 q 473 728 473 828 l 473 523 l 783 523 z "},"ь":{"ha":1228,"x_min":77,"x_max":1160,"o":"m 649 25 q 874 84 812 25 q 936 241 936 142 l 936 278 q 878 428 936 361 q 625 495 820 495 l 473 495 l 473 25 l 649 25 m 783 523 q 1047 456 935 523 q 1160 275 1160 390 l 1160 245 q 1056 72 1160 143 q 703 0 951 0 l 77 0 l 77 26 q 238 73 199 26 q 276 218 276 119 l 276 728 q 238 874 276 828 q 77 920 199 920 l 77 947 l 707 947 l 707 919 q 510 873 547 919 q 473 728 473 828 l 473 523 l 783 523 z "},"Э":{"ha":1093,"x_min":34,"x_max":1038,"o":"m 793 488 q 733 821 791 704 q 525 943 672 943 q 265 838 389 943 q 68 499 140 732 l 47 499 l 66 953 l 92 953 q 211 853 167 853 q 316 911 236 853 q 550 968 397 968 q 886 822 734 968 q 1038 478 1038 675 q 881 135 1038 287 q 497 -18 724 -18 q 180 93 296 -18 q 34 337 63 204 l 62 337 q 203 110 94 210 q 486 10 312 10 q 707 102 619 10 q 793 463 793 194 l 729 463 q 522 391 593 463 q 437 164 450 320 l 412 164 l 412 787 l 437 787 q 522 559 450 631 q 729 488 593 488 l 793 488 z "},"э":{"ha":1093,"x_min":34,"x_max":1038,"o":"m 793 488 q 733 821 791 704 q 525 943 672 943 q 265 838 389 943 q 68 499 140 732 l 47 499 l 66 953 l 92 953 q 211 853 167 853 q 316 911 236 853 q 550 968 397 968 q 886 822 734 968 q 1038 478 1038 675 q 881 135 1038 287 q 497 -18 724 -18 q 180 93 296 -18 q 34 337 63 204 l 62 337 q 203 110 94 210 q 486 10 312 10 q 707 102 619 10 q 793 463 793 194 l 729 463 q 522 391 593 463 q 437 164 450 320 l 412 164 l 412 787 l 437 787 q 522 559 450 631 q 729 488 593 488 l 793 488 z "},"Ю":{"ha":1828,"x_min":81,"x_max":1787,"o":"m 1220 939 q 982 809 1071 939 q 893 474 893 680 q 985 139 893 269 q 1220 10 1078 10 q 1457 139 1369 10 q 1546 474 1546 269 q 1454 809 1546 680 q 1220 939 1362 939 m 682 467 l 479 467 l 479 218 q 514 73 479 119 q 665 26 549 26 l 665 0 l 81 0 l 81 26 q 242 73 203 26 q 280 218 280 119 l 280 728 q 242 874 280 828 q 81 920 203 920 l 81 947 l 665 947 l 665 920 q 514 874 549 920 q 479 728 479 828 l 479 495 l 683 495 q 829 823 690 686 q 1218 966 975 966 q 1627 819 1467 966 q 1787 474 1787 671 q 1624 126 1787 271 q 1218 -18 1460 -18 q 832 127 982 -18 q 682 467 685 268 z "},"ю":{"ha":1828,"x_min":81,"x_max":1787,"o":"m 1220 939 q 982 809 1071 939 q 893 474 893 680 q 985 139 893 269 q 1220 10 1078 10 q 1457 139 1369 10 q 1546 474 1546 269 q 1454 809 1546 680 q 1220 939 1362 939 m 682 467 l 479 467 l 479 218 q 514 73 479 119 q 665 26 549 26 l 665 0 l 81 0 l 81 26 q 242 73 203 26 q 280 218 280 119 l 280 728 q 242 874 280 828 q 81 920 203 920 l 81 947 l 665 947 l 665 920 q 514 874 549 920 q 479 728 479 828 l 479 495 l 683 495 q 829 823 690 686 q 1218 966 975 966 q 1627 819 1467 966 q 1787 474 1787 671 q 1624 126 1787 271 q 1218 -18 1460 -18 q 832 127 982 -18 q 682 467 685 268 z "},"Я":{"ha":1443,"x_min":68,"x_max":1362,"o":"m 964 922 l 729 922 q 480 862 543 922 q 418 715 418 802 l 418 694 q 478 548 418 608 q 720 488 538 488 l 964 488 l 964 922 m 1362 947 l 1362 920 q 1201 874 1240 920 q 1163 728 1163 828 l 1163 218 q 1201 73 1163 119 q 1362 26 1240 26 l 1362 0 l 765 0 l 765 26 q 925 73 887 26 q 964 218 964 119 l 964 463 l 755 463 l 427 0 l 68 0 l 68 26 q 180 41 133 26 q 267 107 228 56 l 429 336 q 559 376 509 355 q 722 463 608 397 l 602 463 q 310 528 429 463 q 191 688 191 592 l 191 718 q 277 875 191 803 q 585 947 363 947 l 1362 947 z "},"я":{"ha":1443,"x_min":68,"x_max":1362,"o":"m 964 922 l 729 922 q 480 862 543 922 q 418 715 418 802 l 418 694 q 478 548 418 608 q 720 488 538 488 l 964 488 l 964 922 m 1362 947 l 1362 920 q 1201 874 1240 920 q 1163 728 1163 828 l 1163 218 q 1201 73 1163 119 q 1362 26 1240 26 l 1362 0 l 765 0 l 765 26 q 925 73 887 26 q 964 218 964 119 l 964 463 l 755 463 l 427 0 l 68 0 l 68 26 q 180 41 133 26 q 267 107 228 56 l 429 336 q 559 376 509 355 q 722 463 608 397 l 602 463 q 310 528 429 463 q 191 688 191 592 l 191 718 q 277 875 191 803 q 585 947 363 947 l 1362 947 z "},"Ё":{"ha":1238,"x_min":102,"x_max":1137,"o":"m 500 449 l 500 26 l 592 26 q 976 128 876 26 q 1109 391 1077 231 l 1137 391 l 1137 0 l 102 0 l 102 26 q 262 73 224 26 q 300 218 300 119 l 300 728 q 262 874 300 828 q 102 920 224 920 l 102 947 l 1112 947 l 1112 578 l 1088 578 q 936 858 1029 793 q 621 922 842 922 l 500 922 l 500 475 q 708 546 636 475 q 792 773 780 617 l 817 773 l 817 151 l 792 151 q 708 378 780 307 q 500 449 636 449 m 297 1192 q 329 1273 297 1240 q 408 1305 361 1305 q 486 1272 453 1305 q 518 1194 518 1240 q 486 1116 518 1149 q 408 1084 453 1084 q 331 1116 364 1084 q 297 1192 297 1148 m 779 1192 q 811 1272 779 1239 q 890 1305 844 1305 q 969 1272 937 1305 q 1002 1194 1002 1238 q 968 1116 1002 1149 q 890 1082 935 1082 q 813 1115 846 1082 q 779 1192 779 1148 z "},"ё":{"ha":1238,"x_min":102,"x_max":1137,"o":"m 500 449 l 500 26 l 592 26 q 976 128 876 26 q 1109 391 1077 231 l 1137 391 l 1137 0 l 102 0 l 102 26 q 262 73 224 26 q 300 218 300 119 l 300 728 q 262 874 300 828 q 102 920 224 920 l 102 947 l 1112 947 l 1112 578 l 1088 578 q 936 858 1029 793 q 621 922 842 922 l 500 922 l 500 475 q 708 546 636 475 q 792 773 780 617 l 817 773 l 817 151 l 792 151 q 708 378 780 307 q 500 449 636 449 m 297 1192 q 329 1273 297 1240 q 408 1305 361 1305 q 486 1272 453 1305 q 518 1194 518 1240 q 486 1116 518 1149 q 408 1084 453 1084 q 331 1116 364 1084 q 297 1192 297 1148 m 779 1192 q 811 1272 779 1239 q 890 1305 844 1305 q 969 1272 937 1305 q 1002 1194 1002 1238 q 968 1116 1002 1149 q 890 1082 935 1082 q 813 1115 846 1082 q 779 1192 779 1148 z "},"…":{"ha":1478,"x_min":81,"x_max":1397,"o":"m 81 100 q 115 183 81 150 q 197 217 149 217 q 278 183 244 217 q 312 101 312 149 q 278 20 312 54 q 197 -14 244 -14 q 116 20 151 -14 q 81 100 81 54 m 624 100 q 657 183 624 150 q 740 217 691 217 q 821 183 787 217 q 854 101 854 149 q 821 20 854 54 q 740 -14 787 -14 q 659 20 694 -14 q 624 100 624 54 m 1166 100 q 1200 183 1166 150 q 1282 217 1234 217 q 1363 183 1329 217 q 1397 101 1397 149 q 1363 20 1397 54 q 1282 -14 1329 -14 q 1201 20 1236 -14 q 1166 100 1166 54 z "},"[":{"ha":520,"x_min":81,"x_max":479,"o":"m 81 1008 l 479 1008 l 479 981 q 319 935 357 981 q 281 789 281 889 l 281 157 q 319 12 281 58 q 479 -35 357 -35 l 479 -61 l 81 -61 l 81 1008 z "},"]":{"ha":520,"x_min":41,"x_max":439,"o":"m 439 -61 l 41 -61 l 41 -35 q 201 12 163 -35 q 239 157 239 58 l 239 789 q 201 935 239 889 q 41 981 163 981 l 41 1008 l 439 1008 l 439 -61 z "},"{":{"ha":483,"x_min":81,"x_max":442,"o":"m 81 496 q 174 540 140 505 q 208 639 208 575 q 186 753 208 699 q 165 875 165 808 q 242 1024 165 958 q 442 1090 320 1090 l 442 1069 q 352 1020 385 1057 q 319 920 319 984 q 336 794 319 846 q 353 671 353 742 q 276 535 347 595 q 129 475 208 489 q 276 414 208 460 q 353 278 347 355 q 336 156 353 208 q 319 30 319 104 q 352 -71 319 -35 q 442 -119 385 -107 l 442 -141 q 242 -74 320 -140 q 165 75 165 -8 q 186 196 165 142 q 208 311 208 250 q 174 409 208 374 q 81 454 140 444 l 81 496 z "},"}":{"ha":483,"x_min":41,"x_max":401,"o":"m 401 454 q 309 409 342 444 q 275 311 275 374 q 296 196 275 250 q 318 75 318 142 q 240 -74 318 -8 q 41 -141 163 -140 l 41 -119 q 131 -71 98 -107 q 164 30 164 -35 q 147 156 164 104 q 130 278 130 208 q 207 414 136 355 q 354 475 275 460 q 207 535 275 489 q 130 671 136 595 q 147 794 130 742 q 164 920 164 846 q 131 1020 164 984 q 41 1069 98 1057 l 41 1090 q 240 1024 163 1090 q 318 875 318 958 q 296 753 318 808 q 275 639 275 699 q 309 540 275 575 q 401 496 342 505 l 401 454 z "},"«":{"ha":758,"x_min":81,"x_max":718,"o":"m 81 474 l 251 826 l 412 826 l 243 474 l 412 122 l 251 122 l 81 474 m 387 474 l 556 826 l 718 826 l 548 474 l 718 122 l 556 122 l 387 474 z "},"»":{"ha":758,"x_min":41,"x_max":677,"o":"m 507 122 l 346 122 l 515 474 l 346 826 l 507 826 l 677 474 l 507 122 m 202 122 l 41 122 l 210 474 l 41 826 l 202 826 l 372 474 l 202 122 z "},"‘":{"ha":384,"x_min":81,"x_max":302,"o":"m 245 758 q 273 742 245 758 q 300 675 300 726 q 268 596 300 629 q 189 563 236 563 q 112 603 143 563 q 81 712 81 643 q 151 864 81 793 q 293 951 220 935 l 302 928 q 221 874 253 905 q 189 813 189 842 q 245 758 189 789 z "},"’":{"ha":384,"x_min":81,"x_max":302,"o":"m 139 757 q 111 772 139 757 q 83 839 83 788 q 116 919 83 886 q 195 951 148 951 q 272 911 241 951 q 302 802 302 871 q 233 650 302 721 q 91 563 164 580 l 81 586 q 163 641 131 609 q 195 701 195 672 q 139 757 195 726 z "},"‚":{"ha":384,"x_min":81,"x_max":302,"o":"m 139 11 q 111 26 139 11 q 83 93 83 42 q 116 173 83 140 q 195 205 148 205 q 272 165 241 205 q 302 56 302 125 q 233 -96 302 -25 q 91 -183 164 -166 l 81 -160 q 163 -105 131 -137 q 195 -45 195 -74 q 139 11 195 -20 z "},"‛":{"ha":384,"x_min":81,"x_max":302,"o":"m 245 757 q 217 741 245 757 q 189 701 189 726 q 221 641 189 672 q 302 586 253 609 l 293 563 q 151 650 220 580 q 81 802 81 721 q 112 911 81 871 q 189 951 143 951 q 268 919 236 951 q 300 839 300 886 q 245 757 300 788 z "},"“":{"ha":655,"x_min":81,"x_max":574,"o":"m 516 758 q 544 742 516 758 q 572 675 572 726 q 539 596 572 629 q 460 563 507 563 q 384 603 414 563 q 353 712 353 643 q 422 864 353 793 q 564 951 491 935 l 574 928 q 492 874 524 905 q 460 813 460 842 q 516 758 460 789 m 245 758 q 273 742 245 758 q 300 675 300 726 q 268 596 300 629 q 189 563 236 563 q 112 603 143 563 q 81 712 81 643 q 151 864 81 793 q 293 951 220 935 l 302 928 q 221 874 253 905 q 189 813 189 842 q 245 758 189 789 z "},"”":{"ha":655,"x_min":81,"x_max":574,"o":"m 139 757 q 111 772 139 757 q 83 839 83 788 q 116 919 83 886 q 195 951 148 951 q 272 911 241 951 q 302 802 302 871 q 233 650 302 721 q 91 563 164 580 l 81 586 q 163 641 131 609 q 195 701 195 672 q 139 757 195 726 m 410 757 q 382 772 410 757 q 355 839 355 788 q 387 919 355 886 q 466 951 419 951 q 543 911 512 951 q 574 802 574 871 q 505 650 574 721 q 362 563 435 580 l 353 586 q 434 641 402 609 q 466 701 466 672 q 410 757 466 726 z "},"„":{"ha":655,"x_min":81,"x_max":574,"o":"m 139 11 q 111 26 139 11 q 83 93 83 42 q 116 173 83 140 q 195 205 148 205 q 272 165 241 205 q 302 56 302 125 q 233 -96 302 -25 q 91 -183 164 -166 l 81 -160 q 163 -105 131 -137 q 195 -45 195 -74 q 139 11 195 -20 m 410 11 q 382 26 410 11 q 355 93 355 42 q 387 173 355 140 q 466 205 419 205 q 543 165 512 205 q 574 56 574 125 q 505 -96 574 -25 q 362 -183 435 -166 l 353 -160 q 434 -105 402 -137 q 466 -45 466 -74 q 410 11 466 -20 z "},"‟":{"ha":655,"x_min":81,"x_max":574,"o":"m 516 757 q 488 741 516 757 q 460 701 460 726 q 492 641 460 672 q 574 586 524 609 l 564 563 q 422 650 491 580 q 353 802 353 721 q 384 911 353 871 q 460 951 414 951 q 539 919 507 951 q 572 839 572 886 q 516 757 572 788 m 245 757 q 217 741 245 757 q 189 701 189 726 q 221 641 189 672 q 302 586 253 609 l 293 563 q 151 650 220 580 q 81 802 81 721 q 112 911 81 871 q 189 951 143 951 q 268 919 236 951 q 300 839 300 886 q 245 757 300 788 z "},"\\":{"ha":563,"x_min":14,"x_max":549,"o":"m 14 1040 l 168 1040 l 549 -124 l 395 -124 l 14 1040 z "},"‹":{"ha":453,"x_min":81,"x_max":412,"o":"m 81 474 l 251 826 l 412 826 l 243 474 l 412 122 l 251 122 l 81 474 z "},"›":{"ha":453,"x_min":41,"x_max":372,"o":"m 202 122 l 41 122 l 210 474 l 41 826 l 202 826 l 372 474 l 202 122 z "},"‒":{"ha":791,"x_min":-14,"x_max":804,"o":"m -14 392 l -14 460 l 804 460 l 804 392 l -14 392 z "},"–":{"ha":791,"x_min":-14,"x_max":804,"o":"m -14 392 l -14 460 l 804 460 l 804 392 l -14 392 z "},"—":{"ha":1401,"x_min":-14,"x_max":1415,"o":"m -14 392 l -14 460 l 1415 460 l 1415 392 l -14 392 z "},"_":{"ha":831,"x_min":41,"x_max":791,"o":"m 41 -218 l 41 -151 l 791 -151 l 791 -218 l 41 -218 z "},"~":{"ha":907,"x_min":81,"x_max":825,"o":"m 453 347 q 390 373 453 347 q 259 399 326 399 q 155 369 188 399 q 117 296 122 339 l 81 296 q 138 445 82 384 q 270 505 194 505 q 454 454 327 505 q 648 402 581 402 q 748 429 719 402 q 790 505 778 455 l 825 505 q 769 356 825 417 q 637 296 713 296 q 453 347 580 296 z "}}}
